<svg width="224" height="222" viewBox="0 0 224 222" fill="none" xmlns="http://www.w3.org/2000/svg">
<path d="M145.535 13.116C152.18 15.6422 158.825 18.1685 165.47 20.6947C171.841 23.166 178.211 25.6374 184.637 28.0538C186.614 28.8226 187.547 29.6464 187.602 32.2825C188.097 60.126 187.657 87.9696 187.712 115.813C187.218 117.461 187.877 119.218 187.328 120.866C186.614 127.73 184.966 134.375 181.671 140.471C179.365 141.405 178.76 139.593 177.882 138.165C176.728 136.188 177.552 133.716 176.399 131.739C176.344 131.355 176.344 131.025 176.454 130.641C179.2 122.678 178.815 114.44 178.815 106.202C178.815 84.345 178.815 62.5424 178.815 40.685C178.815 35.4128 178.541 34.9735 173.598 33.0513C161.846 28.548 150.093 23.9898 138.341 19.3218C136.693 18.6627 134.771 18.3332 133.618 16.7406C133.233 16.1914 133.563 15.4226 133.233 14.9283C132.409 13.8849 131.97 12.7865 133.014 11.798C134.057 10.8094 135.265 10.1504 136.913 10.425C138.89 10.7545 140.153 12.2922 142.02 12.8414C143.723 13.3357 145.26 14.3791 146.304 14.8734C144.931 14.2144 144.931 14.2144 145.535 13.116Z" fill="#751119"/>
<path d="M120.822 190.667C120.602 190.776 120.437 190.886 120.218 190.996C117.307 191.381 114.671 192.699 111.98 193.797C107.477 192.973 103.413 190.886 99.2938 188.964C81.2806 180.562 64.6953 170.127 51.7346 154.695C47.451 149.588 43.8264 144.041 41.2452 137.78C40.6411 133.771 43.3321 131.08 45.1994 128.06C47.0666 127.84 47.451 129.323 47.8903 130.586C51.3502 140.911 57.7207 149.313 65.4642 156.672C73.5921 164.361 82.8183 170.621 92.7036 175.839C97.5364 178.42 102.424 180.891 107.477 182.978C109.509 183.802 111.486 184.626 113.737 184.735C115.769 186.603 118.35 187.536 120.712 188.854C120.932 189.019 121.041 189.239 121.151 189.513C121.206 189.953 121.041 190.337 120.822 190.667Z" fill="#751119"/>
<path d="M145.535 13.116C145.48 15.0382 147.073 14.5439 148.116 14.8734C148.885 15.148 149.764 15.2578 149.929 16.2464C149.984 16.466 149.819 16.8505 149.654 16.9603C148.885 17.3996 148.171 16.9603 147.677 16.466C145.59 14.5439 142.625 15.0931 140.318 13.8299C139.824 13.5554 139.11 13.5554 138.835 13.1709C137.078 10.3701 135.375 12.0726 133.563 13.0062C133.947 14.2144 135.87 13.9947 135.485 15.4775C135.32 16.1914 134.387 15.9718 133.783 16.0816C132.629 17.5644 131.256 16.7406 130.048 16.2464C125.325 14.4341 120.602 12.7316 115.989 10.7545C113.353 9.60125 110.937 9.71108 108.301 10.7545C95.6695 15.8619 82.8735 20.6398 70.2423 25.6374C68.6497 26.2415 67.112 27.23 65.2448 26.6808C64.6956 26.4611 64.3112 26.1316 63.8718 25.7472C62.9931 24.8136 61.6751 24.3193 61.1808 23.0013C61.1808 22.0128 60.0824 21.3537 60.3021 20.2554C62.9931 18.8824 65.7939 17.8939 68.6497 17.0152C70.7366 16.5209 72.8784 16.1365 74.6358 14.6537C86.6629 9.93075 98.69 5.20779 110.717 0.484818C111.596 0.155309 112.474 0.0454725 113.353 0.374982C124.062 4.6586 134.771 8.88731 145.535 13.116Z" fill="#751119"/>
<path d="M177.332 132.343C178.101 132.783 178.156 131.52 178.98 131.794C177.552 135.419 178.541 138.33 181.616 140.636C177.113 150.027 170.523 157.771 162.834 164.69C150.972 175.399 137.462 183.527 122.854 189.843C122.14 189.568 121.316 190.282 120.712 189.513C120.163 189.019 119.778 188.415 119.998 187.646C120.053 187.371 120.163 187.152 120.382 186.932C121.096 186.438 122.085 186.218 122.249 185.12C122.359 184.9 122.524 184.681 122.744 184.516C123.677 183.747 124.831 184.351 125.874 184.131C126.972 183.857 127.796 183.308 128.51 182.429C127.302 183.802 125.819 184.516 123.952 184.076C123.348 184.076 122.908 183.857 122.689 183.308C122.744 182.209 123.403 181.33 123.842 180.342C129.114 177.047 134.771 174.466 139.988 171.061C151.191 163.812 161.571 155.629 169.259 144.48C171.401 141.405 173.104 138.055 174.806 134.705C175.246 133.607 175.465 131.959 177.332 132.343Z" fill="#751119"/>
<path d="M40.0371 28.1086C40.5314 27.7242 41.0256 27.3398 41.6847 27.5045C42.2338 27.7242 42.7281 27.4496 43.2773 27.3947C46.188 26.9554 47.506 27.9439 47.7806 30.8545C47.8355 31.6783 48.2748 32.4472 48.0552 33.271C47.5609 34.4792 46.3527 34.6988 45.3642 35.3029C45.3093 35.4677 45.1994 35.6324 45.1445 35.7972C45.0347 36.4562 45.0347 37.0603 44.9248 37.6644C43.7166 39.6415 43.6068 41.7833 43.6068 43.98C43.6068 66.3866 43.6068 88.7933 43.6068 111.2C43.6068 112.188 43.6068 113.232 43.6068 114.22C43.5519 115.868 42.8379 116.857 41.0256 116.472C40.6961 116.362 40.4215 116.143 40.1469 115.868C39.5428 114.55 39.7625 113.177 39.7625 111.804C39.7625 89.4523 39.7625 67.1006 39.7625 44.7489C39.7625 42.7718 39.9273 40.7398 38.8838 38.8726C38.6092 38.4882 38.3346 38.1587 38.0051 37.8292C37.6756 37.5546 37.401 37.2251 37.1814 36.8406C36.9617 36.1816 37.0715 35.5226 37.0715 34.8636C37.8953 33.3259 38.3346 31.5685 39.6527 30.3054C40.3666 29.7013 39.7625 28.8226 40.0371 28.1086Z" fill="#751119"/>
<path d="M11.9191 137.066C6.75678 136.902 0.221509 130.421 0.0567545 125.314C0.00183624 124.216 0.551019 123.996 1.37479 124.216C6.8117 125.808 11.5347 128.444 14.1158 133.826C15.324 136.353 14.7199 137.176 11.9191 137.066Z" fill="#751119"/>
<path d="M211.931 137.121C209.13 137.067 208.636 136.353 209.844 133.826C212.37 128.389 217.203 125.973 222.585 124.435C223.299 124.216 223.793 124.216 223.793 125.259C223.848 130.257 216.984 137.231 211.931 137.121Z" fill="#751119"/>
<path d="M19.1133 159.967C14.5551 160.022 8.12967 155.958 6.59196 152.334C6.26245 151.565 6.31737 151.126 7.25098 151.071C12.633 150.796 17.8502 151.181 22.024 155.244C22.8478 156.068 24.056 156.892 23.7265 158.155C23.342 159.363 21.9141 159.473 20.7609 159.803C20.1018 159.967 19.4428 159.967 19.1133 159.967Z" fill="#751119"/>
<path d="M205.671 159.913C203.584 159.803 201.057 159.748 200.398 157.99C199.794 156.288 201.991 154.97 203.474 153.926C207.373 151.016 211.876 150.686 216.489 150.906C217.643 150.961 218.027 151.455 217.258 152.444C214.348 156.453 210.888 159.693 205.671 159.913Z" fill="#751119"/>
<path d="M19.9368 174.301C25.5933 171.939 31.0852 170.786 36.6319 174.356C38.9934 175.894 38.8836 176.827 36.4672 178.255C31.7442 181.111 23.9458 179.298 19.9368 174.301Z" fill="#751119"/>
<path d="M195.456 172.324C197.817 172.269 200.398 172.983 202.87 173.917C203.529 174.136 204.517 174.466 203.529 175.345C199.245 179.189 192.216 181.55 186.943 178.036C185.131 176.827 185.461 175.894 186.943 174.686C188.975 173.148 191.776 172.269 195.456 172.324Z" fill="#751119"/>
<path d="M37.4559 193.028C42.9478 189.623 48.165 187.262 54.2609 190.008C56.7322 191.106 56.7872 191.82 54.6453 193.632C51.6248 196.268 48.0002 196.543 44.3207 195.829C42.0141 195.39 39.7076 194.786 37.4559 193.028Z" fill="#751119"/>
<path d="M186.669 193.193C181.342 195.829 176.399 197.586 170.962 194.786C169.589 194.072 167.722 193.138 167.942 191.6C168.161 190.063 170.193 189.623 171.676 189.294C177.168 187.976 181.836 189.898 186.669 193.193Z" fill="#751119"/>
<path d="M64.6951 209.943C63.4869 209.943 61.3451 209.559 59.2582 208.9C58.3246 208.625 57.7754 208.35 58.6541 207.252C61.8393 203.408 69.473 201.101 73.8664 202.804C76.2828 203.682 76.3927 204.286 74.7451 206.264C72.5484 208.79 69.6377 209.998 64.6951 209.943Z" fill="#751119"/>
<path d="M158.55 209.833C154.541 209.943 151.356 208.735 148.885 205.769C147.786 204.451 147.896 203.627 149.599 202.913C154.102 201.046 162.505 203.353 165.415 207.252C166.184 208.295 165.58 208.515 164.811 208.735C162.669 209.394 160.582 209.943 158.55 209.833Z" fill="#751119"/>
<path d="M138.506 221.311C134.277 221.311 130.597 220.103 127.961 216.533C126.753 214.941 126.753 213.842 129.06 213.293C133.783 212.14 141.801 215.435 143.997 219.499C144.492 220.377 144.107 220.597 143.338 220.762C141.801 221.146 140.153 221.421 138.506 221.311Z" fill="#751119"/>
<path d="M207.537 43.4858C203.254 42.9916 200.398 40.4104 198.531 36.7309C197.597 34.8637 195.51 32.3923 197.048 30.8546C198.146 29.7563 200.892 31.6235 202.705 32.612C206.274 34.4792 208.746 37.2801 209.46 41.3989C209.679 42.9916 209.185 43.7055 207.537 43.4858Z" fill="#751119"/>
<path d="M85.235 221.311C83.4776 221.036 80.6218 221.695 80.1276 220.103C79.5784 218.51 82.2145 217.247 83.6424 216.094C86.6079 213.787 90.0129 212.634 93.8022 213.018C94.8457 213.128 96.2186 213.183 96.7129 214.172C97.2072 215.27 96.2186 216.204 95.5596 217.027C92.9235 220.377 89.244 221.201 85.235 221.311Z" fill="#751119"/>
<path d="M13.0721 88.5186C13.2918 90.2211 12.0836 90.2211 10.8204 90.0014C6.97617 89.3424 4.17534 87.0908 2.36304 83.6858C1.26467 81.6539 -0.822222 78.9079 0.605652 77.3702C1.70402 76.162 4.72452 78.194 6.70158 79.2924C10.1614 81.3244 12.5229 84.1801 13.0721 88.5186Z" fill="#751119"/>
<path d="M16.3123 113.287C14.7196 113.452 14.3352 112.683 14.5549 111.145C15.159 106.367 21.4196 100.656 26.1975 100.546C26.9115 100.546 27.4057 100.656 27.4607 101.534C27.7352 106.202 21.0901 113.232 16.3123 113.287Z" fill="#751119"/>
<path d="M13.0722 65.2884C13.237 67.1008 12.0837 67.1008 10.7656 66.8262C6.0976 65.9475 3.24185 62.927 1.42954 58.7532C0.825444 57.3253 -0.767185 55.4032 0.441016 54.2499C1.5943 53.1515 3.46152 54.6343 4.94431 55.2933C9.77712 57.4351 13.0173 61.4442 13.0722 65.2884Z" fill="#751119"/>
<path d="M16.2026 66.9358C14.5002 66.9907 14.2805 66.112 14.5002 64.9587C15.1043 61.0595 17.2461 58.2587 20.5412 56.3366C21.8043 55.6226 23.1223 55.0185 24.4953 54.5243C25.374 54.1948 26.4724 53.2612 27.2412 54.1948C27.9552 55.0185 27.1314 56.1169 26.8019 56.9956C25.0994 61.6087 22.5182 65.453 17.301 66.6612C16.8617 66.771 16.4223 66.8809 16.2026 66.9358Z" fill="#751119"/>
<path d="M209.515 65.1786C209.68 66.9909 208.581 67.0458 207.208 66.8261C202.925 66.0023 200.069 63.3114 198.257 59.522C197.433 57.8195 195.676 55.458 196.829 54.3048C198.202 52.9318 200.453 54.8539 202.211 55.6228C206.22 57.5449 208.911 60.6204 209.515 65.1786Z" fill="#751119"/>
<path d="M207.538 113.287C202.979 112.683 200.014 109.882 198.147 105.873C197.433 104.28 195.73 102.193 196.993 100.93C198.256 99.7221 200.343 101.37 201.936 102.139C205.835 103.951 208.691 106.752 209.405 111.255C209.679 112.738 209.185 113.452 207.538 113.287Z" fill="#751119"/>
<path d="M212.59 66.881C210.723 67.1007 210.723 65.8925 210.942 64.6293C211.711 60.5654 214.128 57.7646 217.697 55.8973C219.51 54.9637 222.146 53.0416 223.354 54.1949C224.782 55.6227 222.805 58.149 221.871 60.0162C219.949 63.8605 216.929 66.2769 212.59 66.881Z" fill="#751119"/>
<path d="M207.922 90.0565C204.517 89.7819 201.936 88.0246 199.904 85.4434C198.312 83.4114 197.323 81.0499 196.664 78.5786C196.499 77.9745 196.06 77.0958 197.433 77.0958C202.431 77.0958 209.186 83.3016 209.515 88.2442C209.57 89.4524 209.35 90.2213 207.922 90.0565Z" fill="#751119"/>
<path d="M11.0953 43.4858C8.34937 43.1563 6.15264 41.8931 4.28542 39.8612C2.19853 37.6095 0.99033 34.8636 0.166557 31.9529C-0.108034 31.0742 -0.108034 30.4152 1.26492 30.58C6.42724 31.239 11.9191 36.0718 12.9076 40.8497C13.2371 42.3874 13.3469 43.7054 11.0953 43.4858Z" fill="#751119"/>
<path d="M212.7 90.0564C210.833 90.331 210.723 89.1777 210.943 87.8597C211.876 83.1367 214.952 80.226 219.235 78.4137C220.663 77.8096 222.476 76.2719 223.684 77.4252C224.617 78.3588 223.244 80.281 222.64 81.6539C220.718 86.1023 217.753 89.3425 212.7 90.0564Z" fill="#751119"/>
<path d="M16.2572 43.4859C14.9941 43.6506 14.3351 43.2113 14.4449 41.6736C14.8843 36.7858 21.6392 30.635 26.5819 30.5801C27.4056 30.5801 27.4056 30.9096 27.4056 31.5137C27.4606 36.5112 21.09 43.4309 16.2572 43.4859Z" fill="#751119"/>
<path d="M13.0723 111.585C13.292 113.122 12.3584 113.342 11.0403 113.232C7.47065 112.848 4.99933 110.816 3.02227 108.07C1.64931 106.203 0.880459 104.061 0.22144 101.864C0.0017675 101.205 -0.327742 100.436 0.990296 100.381C5.71326 100.162 12.9076 106.752 13.0723 111.585Z" fill="#751119"/>
<path d="M212.59 113.287C210.833 113.452 210.833 112.298 211.052 110.98C211.821 106.147 217.917 100.711 222.805 100.436C223.574 100.381 223.958 100.436 223.958 101.37C223.903 106.367 217.258 113.397 212.59 113.287Z" fill="#751119"/>
<path d="M27.461 76.9311C26.6921 83.4114 22.6282 88.5738 17.5208 89.8369C14.6101 90.5508 13.8962 89.9467 14.7199 87.0361C16.4773 80.7205 21.5847 78.5237 27.461 76.9311Z" fill="#751119"/>
<path d="M212.7 43.4859C211.162 43.7056 210.723 42.8818 210.943 41.399C211.547 36.676 217.972 30.7998 222.86 30.6899C223.464 30.6899 223.849 30.6899 223.958 31.4588C224.453 35.9072 217.533 43.3761 212.7 43.4859Z" fill="#751119"/>
<path d="M98.9093 207.691C98.7994 209.449 99.129 211.7 97.5363 212.249C95.8339 212.908 94.406 211.096 93.3625 209.723C90.397 205.824 90.2871 201.431 91.2756 196.927C91.5502 195.774 92.1543 195.719 92.9781 196.488C96.2183 199.618 98.7994 203.078 98.9093 207.691Z" fill="#751119"/>
<path d="M47.7804 32.8317C46.7369 32.612 45.6935 32.3924 44.65 32.1727C44.705 31.953 44.65 31.6784 44.705 31.6235C45.364 31.0743 46.7919 30.7997 46.5173 29.921C46.2976 29.2071 45.0894 28.7128 44.2656 28.2735C43.4968 27.8891 42.5632 27.7792 41.7394 27.5046C43.3869 26.8456 45.0345 26.1317 46.682 25.4727C47.5058 25.7472 48.4943 24.9235 49.2632 25.6923C49.6476 25.9669 49.8673 26.2964 49.9222 26.9554C49.9222 26.2415 49.5378 25.912 49.2083 25.5825C49.0435 25.1981 49.0984 24.8686 49.2632 24.539V24.594C51.2402 24.2095 53.2722 23.8251 54.8648 22.3972L54.8099 22.4522C55.7984 22.1776 56.7321 21.9579 57.7755 22.0128C58.0501 22.0677 58.2698 22.2325 58.4894 22.3972C58.9837 23.1661 58.819 23.9349 58.4345 24.3743C60.4665 22.7817 62.6083 24.2095 64.805 24.7038C65.0247 25.0882 65.1895 25.4727 65.4091 25.8022C65.7386 27.285 64.5854 27.6694 63.5968 28.1087C59.2583 29.9759 54.9198 31.6235 50.4714 33.1612C49.4829 33.5456 48.4943 33.985 47.7804 32.8317Z" fill="#751119"/>
<path d="M125.105 207.417C125.215 203.023 127.742 199.454 131.146 196.378C131.805 195.774 132.3 195.664 132.739 196.708C134.442 200.827 132.849 208.076 129.444 210.877C128.565 211.591 127.577 212.689 126.369 212.195C125.325 211.755 125.38 210.327 125.16 209.284C125.105 208.79 125.105 208.35 125.105 207.417Z" fill="#751119"/>
<path d="M45.5837 128.499C44.1558 131.629 42.728 134.705 41.2452 137.835C38.8837 132.783 37.4558 127.456 36.9066 121.909C37.1263 121.03 36.9066 120.097 37.0714 119.163C37.6755 117.845 38.0599 116.362 39.4329 115.538C39.8722 115.429 40.2566 115.538 40.5312 115.868C42.3435 117.021 41.2452 118.559 41.0255 120.097C40.8607 120.316 41.4648 120.097 41.1353 119.987C40.9706 119.932 41.0255 119.877 41.1902 119.712C42.5632 118.12 43.387 119.602 43.3321 120.481C43.1673 123.062 43.7165 125.698 43.0025 127.565C43.7165 126.577 43.1124 124.71 43.2771 122.952C43.387 121.909 43.3321 120.811 44.9247 121.47C45.8583 123.721 47.7804 125.918 45.5837 128.499Z" fill="#751119"/>
<path d="M59.8627 182.978C59.9176 185.065 59.3684 186.932 58.3799 188.745C57.666 190.117 56.8971 190.117 55.8536 189.129C53.3274 186.603 52.4487 183.527 52.8331 180.122C53.1077 177.871 53.8217 175.674 54.8651 173.587C55.4692 172.324 56.1282 172.379 56.7873 173.477C58.4897 176.443 59.8627 179.463 59.8627 182.978Z" fill="#751119"/>
<path d="M152.73 191.93C152.784 196.104 151.686 199.014 148.995 201.321C147.402 202.694 146.524 202.309 145.92 200.387C144.492 195.939 145.645 191.93 148.171 188.25C148.94 187.097 149.544 185.12 151.082 185.449C152.29 185.724 152.18 187.756 152.455 189.074C152.73 190.282 152.73 191.49 152.73 191.93Z" fill="#751119"/>
<path d="M71.2306 191.6C71.4502 189.843 70.956 186.218 73.0978 185.669C74.7453 185.23 76.1732 188.745 77.2716 190.886C78.9191 194.127 79.1388 197.532 77.8207 200.991C77.2716 202.364 76.5576 202.584 75.3494 201.65C72.2191 199.234 71.1207 195.994 71.2306 191.6Z" fill="#751119"/>
<path d="M164.043 182.813C164.043 179.299 165.525 176.278 167.283 173.367C167.722 172.654 168.107 172.214 168.875 173.203C171.841 176.992 171.841 184.736 168.711 188.415C167.008 190.447 166.294 190.337 165.086 187.866C164.262 186.273 163.988 184.626 164.043 182.813Z" fill="#751119"/>
<path d="M36.6321 168.919C36.687 164.416 38.3895 161.45 40.4764 158.649C41.1354 157.826 41.7944 157.551 42.2338 158.814C43.9912 163.537 44.8698 169.029 41.41 173.697C40.092 175.454 39.2133 175.18 38.2247 173.587C37.1813 171.885 36.5772 170.072 36.6321 168.919Z" fill="#751119"/>
<path d="M182.33 157.441C187.218 162.109 188.701 168.59 186.065 172.983C184.637 175.454 183.758 175.509 182.275 173.148C179.145 167.986 180.243 162.878 182.33 157.441Z" fill="#751119"/>
<path d="M31.909 144.481C31.909 149.039 30.7557 152.938 27.4057 155.958C25.868 157.331 24.9893 157.112 24.2753 155.19C22.9573 151.675 23.9458 148.544 25.9778 145.689C26.6368 144.755 27.5155 143.876 28.3942 143.108C29.3278 142.339 30.2614 140.746 31.4696 141.295C32.4582 141.844 31.7991 143.547 31.909 144.481Z" fill="#751119"/>
<path d="M200.343 152.169C199.959 153.762 200.178 156.288 198.421 156.782C196.883 157.221 195.565 155.189 194.577 153.762C192.215 150.247 191.886 146.293 192.105 142.229C192.16 141.295 192.49 140.746 193.423 141.405C197.048 144.041 200.014 147.171 200.343 152.169Z" fill="#751119"/>
<path d="M15.9281 133.442C15.9281 128.774 21.6945 123.062 26.4175 123.008C27.2962 123.008 27.6806 123.282 27.406 124.106C26.0331 129.049 23.6716 133.277 18.7838 135.474C16.5871 136.517 15.9281 135.968 15.9281 133.442Z" fill="#751119"/>
<path d="M196.005 122.678C200.508 123.776 204.023 125.259 206.439 128.719C207.428 130.202 207.977 131.849 207.977 133.607C207.977 135.584 207.318 136.517 205.121 135.474C199.794 133.057 197.543 128.499 196.005 122.678Z" fill="#751119"/>
<path d="M37.346 119.163C37.2362 120.097 37.0714 120.976 36.9616 121.909C36.8517 119.438 36.5771 116.966 36.5771 114.55C36.5222 87.1459 36.5771 59.6868 36.5222 32.2826C36.5222 29.976 37.0714 28.603 39.4878 28.4383C39.9821 28.9326 40.2017 29.6465 39.7075 30.1408C38.4993 31.4588 38.3894 33.2711 37.4009 34.6441C37.4009 35.358 37.4009 36.1268 37.4009 36.8408C38.2796 37.7195 38.2247 38.8178 38.2247 39.9162C38.2796 65.1786 38.1698 90.4959 38.2796 115.758C38.1698 116.966 37.9501 118.12 37.346 119.163Z" fill="#751119"/>
<path d="M195.675 165.13C195.95 162.988 197.158 161.725 199.19 161.725C201.112 161.725 202.43 162.878 202.485 164.91C202.595 166.832 200.728 168.699 198.861 168.535C196.939 168.315 195.95 167.052 195.675 165.13Z" fill="#751119"/>
<path d="M206.933 143.382C207.043 141.57 208.032 140.197 210.229 140.087C212.261 139.977 213.469 141.076 213.634 143.162C213.798 145.249 212.261 146.952 210.283 147.007C208.471 147.007 207.043 145.579 206.933 143.382Z" fill="#751119"/>
<path d="M183.044 186.273C180.903 186.218 179.639 185.065 179.639 183.033C179.639 180.946 180.848 179.683 183.044 179.518C185.021 179.408 186.724 181.001 186.559 182.868C186.339 184.955 185.076 186.108 183.044 186.273Z" fill="#751119"/>
<path d="M13.127 119.383C13.1819 121.305 11.5343 123.062 9.72205 122.898C7.74499 122.733 6.59171 121.47 6.53679 119.493C6.48187 117.406 7.63515 116.253 9.61221 116.033C11.4794 115.758 13.0721 117.461 13.127 119.383Z" fill="#751119"/>
<path d="M41.1901 186.273C38.9933 186.163 37.6204 185.065 37.5106 182.978C37.4007 181.001 38.4991 179.683 40.6409 179.573C42.8376 179.518 44.1557 180.781 44.2655 182.868C44.3753 184.79 43.2221 186.053 41.1901 186.273Z" fill="#751119"/>
<path d="M59.6427 194.181C61.6197 194.401 62.9927 195.554 62.9927 197.641C62.9927 199.673 61.7296 200.827 59.6976 200.936C57.8304 200.991 56.1279 199.289 56.1828 197.477C56.2377 195.664 57.7754 194.127 59.6427 194.181Z" fill="#751119"/>
<path d="M28.12 165.459C28.0101 167.217 26.8569 168.315 24.8249 168.425C23.0126 168.48 21.3101 166.667 21.42 164.855C21.5847 162.823 22.738 161.67 24.77 161.56C26.6921 161.505 28.1749 163.153 28.12 165.459Z" fill="#751119"/>
<path d="M17.0262 143.382C16.8614 145.414 15.8729 146.732 13.786 146.732C11.5893 146.787 10.3811 145.524 10.3811 143.327C10.3262 141.295 11.3147 139.977 13.5114 139.977C15.6532 140.032 16.8065 141.24 17.0262 143.382Z" fill="#751119"/>
<path d="M217.478 119.108C217.313 121.25 216.325 122.678 214.183 122.733C212.151 122.788 211.107 121.415 210.888 119.493C210.723 117.571 212.261 115.923 214.183 115.978C216.215 115.978 217.203 117.186 217.478 119.108Z" fill="#751119"/>
<path d="M144.272 206.373C146.139 206.538 147.292 207.636 147.402 209.668C147.457 211.426 145.645 213.183 143.832 213.073C141.855 212.909 140.702 211.755 140.592 209.723C140.537 207.801 142.185 206.264 144.272 206.373Z" fill="#751119"/>
<path d="M80.1824 206.373C82.1045 206.593 83.2578 207.691 83.3676 209.668C83.4775 211.536 81.7201 213.183 79.9078 213.073C78.0955 212.963 76.393 211.151 76.6127 209.449C76.8324 207.362 78.0955 206.373 80.1824 206.373Z" fill="#751119"/>
<path d="M160.912 197.916C160.967 195.664 162.56 194.181 164.482 194.291C166.569 194.401 167.667 195.664 167.612 197.696C167.557 199.728 166.239 200.881 164.262 200.936C162.23 200.881 161.132 199.618 160.912 197.916Z" fill="#751119"/>
<path d="M17.6854 122.513C15.6534 122.348 14.4452 121.25 14.4452 119.218C14.4452 117.186 15.8181 115.978 17.7952 115.978C19.7723 115.978 21.0354 117.241 21.0354 119.273C21.0354 121.47 19.6624 122.348 17.6854 122.513Z" fill="#751119"/>
<path d="M17.5207 23.0561C19.6076 23.1659 20.8707 24.1545 20.9256 26.2414C20.9805 28.3282 19.7723 29.5364 17.7953 29.6463C15.7633 29.7561 14.5002 28.493 14.3903 26.461C14.3354 24.429 15.5436 23.2758 17.5207 23.0561Z" fill="#751119"/>
<path d="M206.604 122.513C204.462 122.348 203.089 121.47 202.98 119.383C202.925 117.351 204.133 116.088 206.11 115.978C208.087 115.868 209.405 117.076 209.515 119.053C209.68 121.14 208.362 122.238 206.604 122.513Z" fill="#751119"/>
<path d="M217.478 26.2963C217.313 28.3283 216.27 29.6463 214.238 29.6463C212.206 29.6463 210.943 28.4381 210.888 26.4061C210.833 24.3742 211.986 23.166 214.073 23.111C216.16 23.0561 217.203 24.3192 217.478 26.2963Z" fill="#751119"/>
<path d="M143.613 202.529C143.393 204.561 142.405 205.879 140.318 205.879C138.286 205.879 137.023 204.616 137.023 202.584C137.023 200.607 138.121 199.289 140.208 199.289C142.295 199.344 143.229 200.662 143.613 202.529Z" fill="#751119"/>
<path d="M206.22 52.8219C204.243 52.6023 202.98 51.5588 203.035 49.4719C203.09 47.4399 204.298 46.2318 206.33 46.2318C208.362 46.2867 209.57 47.6047 209.57 49.5818C209.515 51.5588 208.307 52.7121 206.22 52.8219Z" fill="#751119"/>
<path d="M214.073 52.8767C212.041 52.6571 210.833 51.5587 210.888 49.5267C210.943 47.4948 212.206 46.2866 214.183 46.2866C216.16 46.3415 217.423 47.4948 217.368 49.6366C217.368 51.7784 216.105 52.712 214.073 52.8767Z" fill="#751119"/>
<path d="M17.6304 52.9867C15.5985 52.767 14.3354 51.6137 14.3903 49.6367C14.3903 47.6047 15.8181 46.3965 17.7403 46.3965C19.7723 46.3965 20.9255 47.7145 20.9255 49.7465C20.9255 51.7785 19.6624 52.8219 17.6304 52.9867Z" fill="#751119"/>
<path d="M9.50229 23.0561C11.8089 23.2208 13.0171 24.3192 13.072 26.3512C13.072 28.3832 11.8089 29.6463 9.8318 29.6463C7.79982 29.6463 6.59162 28.4381 6.59162 26.4061C6.5367 24.2643 7.85474 23.3307 9.50229 23.0561Z" fill="#751119"/>
<path d="M31.2504 163.702C29.3832 163.372 27.9553 162.494 28.0102 160.407C28.0651 158.375 29.4381 157.222 31.3602 157.167C33.3922 157.112 34.6004 158.265 34.5455 160.352C34.5455 162.384 33.2824 163.427 31.2504 163.702Z" fill="#751119"/>
<path d="M192.82 163.702C190.788 163.537 189.579 162.494 189.415 160.462C189.25 158.43 190.513 157.441 192.38 157.221C194.192 157.002 196.06 158.759 196.005 160.571C195.895 162.548 194.632 163.372 192.82 163.702Z" fill="#751119"/>
<path d="M214.348 92.8023C216.27 93.0769 217.478 94.1753 217.423 96.2621C217.368 98.2941 216.105 99.5023 214.073 99.3925C212.096 99.2827 210.833 98.1294 210.888 96.0425C210.998 94.0105 212.261 92.9671 214.348 92.8023Z" fill="#751119"/>
<path d="M9.66746 52.8219C7.74532 52.5473 6.4822 51.5039 6.53712 49.4719C6.59204 47.4399 7.80024 46.2318 9.83222 46.2318C11.8642 46.2867 13.0724 47.5498 13.0724 49.5268C13.0175 51.5588 11.8093 52.6572 9.66746 52.8219Z" fill="#751119"/>
<path d="M209.46 26.2414C209.24 28.3283 208.197 29.5914 206.165 29.6463C204.133 29.6463 202.87 28.3832 202.87 26.4061C202.87 24.4291 204.023 23.111 206.11 23.111C208.197 23.0561 209.24 24.3192 209.46 26.2414Z" fill="#751119"/>
<path d="M13.1272 96.0426C12.8526 98.1295 11.6994 99.3377 9.7223 99.2828C7.74524 99.2278 6.48212 98.0197 6.59196 95.9328C6.64688 93.9008 7.85508 92.7475 9.94197 92.7475C12.0289 92.8024 12.9076 94.1754 13.1272 96.0426Z" fill="#751119"/>
<path d="M217.423 72.5924C217.368 74.7891 216.215 76.0522 214.238 76.1072C212.261 76.1621 210.888 74.9539 210.888 72.9219C210.833 70.8899 212.041 69.6268 214.073 69.5719C216.105 69.517 217.203 70.6702 217.423 72.5924Z" fill="#751119"/>
<path d="M206.275 69.517C208.252 69.7367 209.57 70.7802 209.57 72.867C209.57 74.899 208.252 76.1621 206.275 76.1621C204.298 76.1621 203.035 74.9539 203.035 72.867C203.035 70.7802 204.243 69.6818 206.275 69.517Z" fill="#751119"/>
<path d="M20.9806 72.9221C20.8158 75.009 19.6076 76.2172 17.6306 76.1623C15.6535 76.1074 14.3904 74.8442 14.4453 72.8123C14.5002 70.7803 15.8183 69.627 17.8503 69.627C19.8273 69.5721 20.9257 70.8901 20.9806 72.9221Z" fill="#751119"/>
<path d="M9.7221 69.517C11.7541 69.7367 13.0172 70.7801 13.0721 72.8121C13.127 74.8441 11.8639 76.1072 9.88686 76.1621C7.96472 76.1621 6.59176 75.0638 6.59176 72.9769C6.53684 70.7802 7.74505 69.7916 9.7221 69.517Z" fill="#751119"/>
<path d="M86.992 202.364C86.8821 204.451 85.8387 205.824 83.8067 205.879C81.8297 205.934 80.5665 204.671 80.4018 202.694C80.237 200.827 81.9395 199.289 83.9166 199.344C85.9485 199.344 86.8272 200.552 86.992 202.364Z" fill="#751119"/>
<path d="M202.979 96.0976C203.144 94.0656 204.133 92.8574 206.22 92.8025C208.307 92.7476 209.46 94.0107 209.515 95.9878C209.57 97.9648 208.307 99.2829 206.275 99.3378C204.298 99.3378 203.199 98.1296 202.979 96.0976Z" fill="#751119"/>
<path d="M163.109 190.667C162.999 192.973 161.846 194.236 159.869 194.291C157.837 194.346 156.629 192.973 156.629 190.996C156.629 189.184 157.672 187.866 159.649 187.756C161.791 187.701 162.725 189.019 163.109 190.667Z" fill="#751119"/>
<path d="M20.9805 95.9326C20.8158 98.0745 19.8272 99.3376 17.7404 99.3925C15.6535 99.3925 14.4453 98.1294 14.3903 96.1523C14.3354 94.1753 15.5436 92.8572 17.6305 92.8023C19.7174 92.8023 20.7609 94.0654 20.9805 95.9326Z" fill="#751119"/>
<path d="M178.156 180.342C176.069 180.397 174.532 178.914 174.532 176.937C174.587 174.96 175.685 173.917 177.552 173.752C179.31 173.587 181.122 175.399 181.012 177.157C180.957 179.024 179.914 180.122 178.156 180.342Z" fill="#751119"/>
<path d="M202.595 137.78C204.792 137.835 206.11 138.879 206.165 140.856C206.22 142.778 205.011 143.876 203.089 143.931C201.112 144.041 199.355 142.448 199.465 140.691C199.629 138.824 200.838 137.89 202.595 137.78Z" fill="#751119"/>
<path d="M60.796 190.996C60.9059 189.129 61.9493 187.866 63.9813 187.811C66.1231 187.701 67.2215 189.074 67.2215 190.996C67.2215 192.973 65.9034 194.291 63.9264 194.236C62.1141 194.236 60.9608 193.138 60.796 190.996Z" fill="#751119"/>
<path d="M21.0901 144.041C19.1679 143.986 17.8499 143.052 17.8499 141.13C17.795 139.153 18.9483 137.89 21.0352 137.835C23.0671 137.78 24.495 138.769 24.495 140.801C24.4401 142.778 23.0671 143.821 21.0901 144.041Z" fill="#751119"/>
<path d="M49.483 176.882C49.3183 178.804 48.3847 180.122 46.2978 180.177C44.156 180.232 43.0576 178.914 43.0576 176.937C43.0576 174.905 44.4306 173.697 46.4076 173.697C48.3298 173.642 49.3732 174.85 49.483 176.882Z" fill="#751119"/>
<path d="M37.3458 34.644C36.8515 32.1727 37.895 30.1957 39.4327 28.4383C39.6524 28.3285 39.872 28.2735 40.0917 28.1637C40.8057 28.603 41.5196 28.9326 42.1786 29.4268C42.7827 29.9211 42.8376 30.8547 42.1786 30.9645C39.7622 31.2391 39.3229 33.985 37.3458 34.644Z" fill="#751119"/>
<path d="M111.98 193.797C114.506 192.259 116.923 190.337 120.218 190.996C117.582 192.369 114.836 193.248 111.98 193.797Z" fill="#751119"/>
<path d="M60.302 20.3103C61.1807 20.9144 62.2241 21.4087 62.6085 22.562C61.1257 23.5505 59.6979 24.2644 58.2151 22.562C57.2815 21.2439 59.0938 21.4087 59.2585 20.6947C59.588 20.53 59.9175 20.4201 60.302 20.3103Z" fill="#751119"/>
<path d="M74.5806 14.7086C73.2625 17.1799 70.956 17.1799 68.5945 17.0701C70.5166 16.0267 72.5486 15.3127 74.5806 14.7086Z" fill="#751119"/>
<path d="M54.8103 22.4521C53.4373 24.4291 51.5152 24.9783 49.2086 24.6488C50.966 23.4955 52.9431 23.1111 54.8103 22.4521Z" fill="#751119"/>
<path d="M59.2035 20.6397C58.874 21.2438 58.4896 21.9028 58.1601 22.5069C57.0068 22.452 55.9084 22.452 54.7551 22.3971C56.0732 21.3536 57.7207 21.2438 59.2035 20.6397Z" fill="#751119"/>
<path d="M187.273 120.975C187.053 119.273 186.998 117.57 187.657 115.923C187.822 117.625 187.932 119.328 187.273 120.975Z" fill="#751119"/>
<path d="M49.3732 25.857C48.4946 25.7472 47.5609 25.6374 46.6823 25.4726C47.5609 25.1431 48.3847 24.8685 49.2634 24.539C49.3183 24.9783 49.3183 25.4177 49.3732 25.857Z" fill="#751119"/>
<path d="M120.767 189.458C121.481 189.568 122.195 189.678 122.909 189.788C122.195 190.063 121.481 190.337 120.822 190.612C120.767 190.282 120.767 189.843 120.767 189.458Z" fill="#751119"/>
<path d="M181.067 131.135C181.188 131.135 181.287 106.056 181.287 75.1185C181.287 44.1814 181.188 19.1019 181.067 19.1019C180.946 19.1019 180.847 44.1814 180.847 75.1185C180.847 106.056 180.946 131.135 181.067 131.135Z" fill="#751119"/>
<path d="M113.682 185.779C114.012 185.724 114.286 185.614 114.616 185.559C116.977 185.01 119.009 185.834 120.822 187.262C120.822 187.976 120.822 188.744 120.822 189.458C118.076 188.909 115.604 187.866 113.682 185.779Z" fill="#751119"/>
<path d="M58.1598 22.562C59.6426 22.562 61.0705 22.562 62.5532 22.562C62.3885 24.2095 64.6401 23.3857 64.75 24.7587C61.9491 24.539 59.368 24.8685 56.9516 26.4611C56.1827 26.9554 55.0294 27.4497 54.5352 26.4611C54.0409 25.5275 55.2491 25.1431 55.9081 24.8136C56.9516 24.3193 57.7754 23.6603 58.1598 22.562Z" fill="#751119"/>
<path d="M120.767 187.262C118.46 187.591 116.648 186.163 114.561 185.559C116.812 184.571 119.064 183.527 121.371 182.539C121.865 182.758 122.524 182.319 122.963 182.923C123.348 183.088 123.677 183.253 124.062 183.472C124.336 184.461 123.128 184.406 122.963 185.12C122.249 185.834 121.48 186.548 120.767 187.262Z" fill="#751119"/>
<path d="M122.964 185.065C123.348 184.516 123.678 183.967 124.062 183.418C126.039 183.033 127.851 182.209 129.554 181.056C130.323 180.562 131.586 180.232 131.915 181.111C132.3 182.045 131.146 182.484 130.268 182.868C127.906 183.857 125.764 185.504 122.964 185.065Z" fill="#751119"/>
<path d="M120.767 187.262C120.273 186.713 119.779 186.108 119.229 185.504C120.492 184.736 121.756 185.23 122.964 185.065C124.447 188.031 122.03 187.097 120.767 187.262Z" fill="#751119"/>
<path d="M122.964 182.923C122.415 182.813 121.92 182.704 121.371 182.539C122.415 182.099 123.458 181.66 124.501 181.166C124.611 182.319 123.733 182.539 122.964 182.923Z" fill="#751119"/>
<path d="M43.8266 36.8406C43.8815 45.9571 43.9364 55.0735 43.9364 64.1899C43.9364 79.7867 43.9364 95.3835 43.9364 111.035C43.9364 114.495 44.1561 117.955 44.2659 121.415C43.6069 124.82 44.211 128.444 41.9594 132.014C41.1905 127.785 44.1561 123.996 42.179 120.042C41.1356 121.25 42.3438 122.843 40.9708 124.161C40.3118 121.25 40.8061 118.559 40.6413 115.923C42.7831 115.978 42.8381 114.495 42.8381 112.957C42.8381 104.994 42.8381 97.0859 42.8381 89.1228C42.8381 72.867 42.8381 56.6112 42.8381 40.3554C42.8381 39.0923 42.3987 37.6644 43.8266 36.8406Z" fill="#751119"/>
<path d="M37.3462 119.163C37.3462 91.704 37.3462 64.2448 37.3462 36.8406C37.7306 36.8406 38.0601 36.8406 38.4446 36.8406C39.5978 38.0488 39.2683 39.5866 39.2683 41.0144C39.2683 63.4211 39.2683 85.8277 39.2683 108.234C39.2683 110.596 39.2683 113.012 39.488 115.374C39.488 115.538 39.488 115.703 39.5429 115.923C39.2683 117.296 38.6642 118.449 37.3462 119.163Z" fill="#751119"/>
<path d="M40.586 115.923C40.2016 115.923 39.8721 115.923 39.4877 115.923C38.7188 114.989 38.9385 113.836 38.9385 112.738C38.9385 88.5187 38.9385 64.2448 38.9385 40.0259C38.9385 38.9275 38.7188 37.8292 39.4877 36.8406C41.0254 37.7193 40.586 39.257 40.586 40.5202C40.586 65.6727 40.586 90.7703 40.586 115.923Z" fill="#751119"/>
<path d="M39.4878 36.8406C39.4878 63.2014 39.4878 89.5621 39.4878 115.923C37.95 115.044 38.3894 113.506 38.3894 112.243C38.3894 87.0908 38.3894 61.9932 38.3894 36.8406C38.7738 36.8406 39.1582 36.8406 39.4878 36.8406Z" fill="#751119"/>
<path d="M44.046 34.1497C44.046 34.3145 43.9361 34.4793 43.8263 34.644C43.2222 34.7538 42.7829 35.4678 42.0689 35.0834C41.7394 34.8637 41.7394 34.4243 42.014 34.1497C42.7279 33.4358 43.387 33.9301 44.046 34.1497Z" fill="#751119"/>
<path d="M49.373 25.8571C50.1418 25.6375 50.5263 26.1866 50.9656 26.626C51.5697 27.2301 53.4918 26.5162 52.8328 28.1088C52.2836 29.4268 50.6361 29.317 49.4279 28.9326C47.7254 28.3834 48.7689 27.2301 49.1533 26.2965C49.2631 26.1866 49.318 26.0219 49.373 25.8571Z" fill="#751119"/>
<path d="M81.2254 118.01C82.873 114.275 84.6304 110.541 86.223 106.752C86.9369 105.049 87.8706 105.818 88.8042 106.257C96.6575 109.662 102.314 115.538 106.872 122.568C108.575 125.149 109.948 127.895 111.65 130.861C114.286 125.534 117.142 120.701 120.876 116.417C124.666 112.079 129.059 108.619 134.331 106.202C135.869 105.488 136.528 105.873 137.187 107.356C139.274 112.134 141.416 116.856 143.722 121.525C144.491 123.062 144.162 123.611 142.734 124.38C132.464 129.872 123.293 136.682 116.153 146.073C114.506 148.27 113.133 150.631 111.815 153.048C111.595 152.993 111.321 153.048 111.266 152.938C104.401 140.252 93.5821 131.739 81.2804 124.82C80.8959 124.6 80.5115 124.325 80.1271 124.106C79.3033 122.843 79.7976 121.579 80.1271 120.316C80.8959 119.712 80.841 118.779 81.2254 118.01Z" fill="#751119"/>
<path d="M105.664 162.164C92.8682 144.81 77.8206 131.739 55.3591 130.916C55.1394 130.037 55.7984 129.707 56.2378 129.268C63.1575 122.348 70.0771 115.429 76.9968 108.509C77.8206 107.685 78.5346 106.752 80.0174 107.246C81.9395 107.905 82.9829 108.509 81.7747 110.87C79.7428 114.77 78.1501 118.889 76.228 122.788C75.3493 124.655 75.4042 125.424 77.601 126.303C90.6715 131.355 99.9527 140.856 107.641 152.224C108.19 153.048 108.355 153.871 108.026 154.805C107.586 156.288 107.092 157.771 106.653 159.253C106.433 160.077 106.158 160.846 105.664 162.164Z" fill="#751119"/>
<path d="M117.527 162.274C116.593 159.253 115.879 156.837 115.11 154.421C114.781 153.377 115.385 152.663 115.879 151.894C123.568 140.581 132.904 131.135 146.029 126.138C147.842 125.424 147.896 124.6 147.183 123.062C145.26 118.943 143.393 114.77 141.526 110.596C141.196 109.882 140.153 108.893 141.306 108.234C142.514 107.575 143.832 106.477 145.315 107.575C145.81 107.96 146.249 108.454 146.688 108.893C153.333 115.538 160.033 122.184 166.624 128.884C167.173 129.433 167.997 129.817 167.997 130.916C145.48 131.739 130.487 144.755 117.527 162.274Z" fill="#751119"/>
<path d="M124.611 95.3835C123.458 95.1639 122.305 94.9991 121.151 94.6696C116.593 93.4065 116.264 92.6925 117.307 88.1343C117.692 86.4319 118.296 85.7179 120.163 85.663C122.085 85.6081 123.129 86.1573 123.293 88.0794C123.513 90.8802 125.82 90.386 127.412 90.386C129.554 90.386 131.696 89.8368 132.245 87.2556C132.684 85.2786 132.135 83.5761 130.048 82.8073C128.62 82.2581 127.138 81.8187 125.655 81.3794C124.556 81.0499 123.348 80.8851 122.415 80.1163C119.943 78.304 117.966 76.272 117.527 72.9769C117.252 70.89 117.801 69.0228 118.515 67.2105C119.394 64.9588 121.646 66.167 123.238 65.5629C123.678 65.5629 124.062 65.7277 124.392 66.0023C125.49 67.9793 124.117 69.7367 122.799 69.9015C119.669 70.231 120.273 71.9884 120.657 73.8556C121.646 75.6679 123.623 76.1621 125.106 77.2605C125.71 77.8646 126.259 78.5236 127.247 78.3589C126.314 78.5236 125.765 77.9744 125.215 77.3703C123.788 76.1072 121.591 75.7777 120.657 73.8556C120.547 73.581 120.438 73.3613 120.492 73.0867C120.657 72.1531 119.559 70.89 121.097 70.231C122.634 69.6269 123.348 70.7802 124.172 71.7138C124.886 73.2515 126.259 73.9105 127.797 74.3498C129.609 74.899 131.476 75.3933 133.288 75.9974C137.847 77.6449 139.769 80.2261 139.879 84.6745C140.043 88.8483 137.792 92.418 133.783 94.1753C132.465 94.7794 131.092 95.2737 129.609 95.2188C127.961 94.1204 126.259 95.8229 124.611 95.3835Z" fill="#751119"/>
<path d="M100.997 95.109C98.4153 95.1639 95.8891 95.2189 93.3079 95.2189C92.4293 95.2189 91.276 95.4934 91.2211 94.1205C91.1661 92.9123 90.2874 91.3746 91.8252 90.6606C93.4727 89.8918 93.4727 88.7385 93.4727 87.3106C93.4727 81.709 93.5276 76.1622 93.4178 70.5606C93.4178 69.572 94.0768 67.9245 92.594 67.8147C90.8916 67.6499 88.7497 66.7163 87.4866 68.5286C86.553 69.9016 85.6194 69.6819 84.4661 69.3524C83.1481 68.9679 83.6423 67.8696 83.5874 67.0458C83.5325 65.7827 83.6423 64.4646 83.6973 63.2015C86.553 62.4876 89.5186 62.9269 92.4293 62.872C96.3285 62.8171 100.283 62.8171 104.182 62.872C105.335 63.4212 106.598 64.0253 106.159 65.6728C105.719 67.2655 104.347 66.936 103.193 66.936C100.008 67.0458 99.349 67.4851 99.7883 70.1761C100.612 75.5032 100.008 80.8303 100.228 86.1573C100.283 87.8598 99.8432 89.6172 101.491 91.1549C102.315 92.0885 102.15 93.9008 100.997 95.109Z" fill="#751119"/>
<path d="M101.436 32.4471C100.557 32.0627 99.7331 31.5684 99.184 30.7996C100.008 29.5365 101.271 30.0856 102.424 29.9758C104.127 29.8111 105.884 30.3053 107.532 29.7012C107.916 29.3168 108.3 28.9324 108.63 28.5479C109.179 28.4381 109.728 28.3283 110.277 28.3283C110.717 28.3283 111.156 28.3283 111.595 28.3283C112.145 28.3283 112.859 28.1086 113.188 28.4381C115.659 30.7447 118.735 29.866 121.591 29.9758C122.524 30.0307 123.458 30.0307 123.458 31.3488C123.348 31.5135 123.238 31.6234 123.128 31.7881C121.316 33.4906 117.966 34.0947 117.636 36.6209C117.362 38.8176 118.955 41.234 119.614 43.5955C119.833 44.3644 120.437 45.0234 119.998 46.2316C117.252 44.1996 114.616 42.2226 111.98 40.2455C109.509 38.8176 107.532 36.7857 105.39 34.9734C104.676 34.4242 103.962 33.9299 103.083 33.7102H103.028C102.809 32.8865 101.985 32.8316 101.436 32.4471Z" fill="#751119"/>
<path d="M86.0587 149.478C82.3242 148.325 78.7545 146.732 74.9652 145.908C70.7914 144.975 66.5627 144.48 61.7848 144.425C63.2676 142.064 64.5856 139.922 65.9037 137.835C66.343 137.121 67.002 137.396 67.6061 137.506C75.0201 138.989 81.6103 142.064 86.8275 147.611C87.0472 148.434 87.5414 149.368 86.0587 149.478Z" fill="#751119"/>
<path d="M135.046 148.819C135.705 147.666 136.803 146.952 137.846 146.238C139.769 146.128 140.812 144.865 141.636 143.327C145.755 140.087 150.587 138.604 155.585 137.506C156.519 137.286 157.123 137.506 157.672 138.33C158.825 140.252 160.088 142.174 161.516 144.425C152.4 144.371 144.162 146.622 136.199 149.972C134.936 150.412 134.551 150.027 135.046 148.819Z" fill="#751119"/>
<path d="M87.9259 40.3553C83.2029 42.4422 86.553 45.7922 86.8276 48.5931C86.498 48.5931 86.2784 48.7029 86.2234 48.648C82.7636 44.7488 79.4136 45.4627 75.8988 48.7029C76.5029 46.7258 77.9308 44.4742 77.3816 42.8816C76.8873 41.234 74.4709 40.1906 72.439 38.4881C75.8988 38.2135 80.0177 39.5316 80.5669 34.534C81.171 34.1496 81.7202 34.1496 82.2693 34.5889C82.3792 34.6988 82.4341 34.8086 82.3792 34.9733C82.8185 38.3234 82.8185 38.3783 86.6079 38.7078C87.7612 38.8176 88.4202 39.0922 87.9259 40.3553Z" fill="#751119"/>
<path d="M100.997 95.1091C100.722 93.5714 101.875 91.5394 99.5687 90.6058C99.4039 90.5509 99.2941 90.1115 99.349 89.9467C100.502 85.4984 99.5687 80.9402 99.8433 76.4369C99.9531 74.7344 99.7334 73.0869 99.0744 71.3844C97.9761 68.5836 99.2941 66.7713 102.26 66.5516C105.555 66.277 105.61 66.1672 104.237 63.2565C106.049 62.5425 107.916 63.2565 109.729 62.8171C110.607 64.6294 110.168 66.5516 110.058 68.4188C110.003 69.7368 107.422 70.3409 106.708 69.1327C105.225 66.7713 103.083 68.0893 101.271 67.8696C100.228 67.7049 100.283 68.7483 100.283 69.4073C100.283 75.7778 100.283 82.1484 100.228 88.5738C100.228 89.6722 100.777 90.1664 101.656 90.6058C103.303 91.3746 102.479 92.8025 102.479 94.0107C102.644 94.9992 102.04 95.3837 100.997 95.1091Z" fill="#751119"/>
<path d="M138.89 45.5727C137.517 46.671 136.364 48.1538 133.782 48.4833C137.132 43.8153 135.265 40.9046 130.652 38.4882C136.364 39.7513 138.89 37.3349 139.164 32.0079C140.373 33.0513 140.428 34.1497 140.702 35.0284C141.032 35.962 141.251 36.9505 141.581 37.8841C141.526 40.685 140.757 43.1563 138.89 45.2981C138.67 45.5727 138.945 45.2432 138.89 45.5727Z" fill="#751119"/>
<path d="M122.963 66.4965C122.744 66.6613 122.524 66.826 122.249 66.9359C121.041 67.4851 119.119 66.4416 118.625 68.7482C117.966 71.6588 117.801 74.4048 119.723 76.9859C120.602 78.1392 122.03 78.7433 122.414 80.281C118.515 78.5785 116.648 75.3384 116.977 70.9449C117.252 66.9908 120.053 63.8055 124.227 62.7621C127.302 61.9932 130.322 62.1031 133.398 62.9268C132.519 65.5629 129.389 66.9908 126.149 66.0572C124.886 65.5629 123.842 65.2883 122.963 66.4965Z" fill="#751119"/>
<path d="M105.39 34.644C105.884 34.8637 106.378 35.358 106.873 35.358C110.332 35.1932 111.101 37.6645 111.98 40.1908C108.74 41.5637 106.488 44.5293 102.754 45.9572C103.742 42.9367 104.566 40.3555 105.445 37.7744C105.719 36.8957 106.159 36.0719 105.335 35.3031C105.17 35.0834 105.17 34.8088 105.39 34.644Z" fill="#751119"/>
<path d="M138.89 45.5728C137.682 44.1998 135.924 42.8818 139.494 42.2228C141.197 41.8933 139.878 40.6851 139.659 39.9711C139.439 39.2572 138.451 38.708 139.165 37.7744C139.988 36.676 140.812 37.6646 141.636 37.8842C141.746 37.9941 141.856 38.1588 141.856 38.3236C143.064 39.0924 144.437 38.4883 145.645 38.708C146.194 38.8178 147.183 38.2687 147.183 39.5318C146.798 39.8613 146.414 40.1359 146.029 40.4654C144.107 40.74 143.009 41.5638 143.064 43.7605C143.119 46.6162 140.867 44.749 139.714 45.1884C139.384 45.3531 139.11 45.463 138.89 45.5728Z" fill="#751119"/>
<path d="M132.3 70.8901C131.641 70.286 131.641 69.4622 131.75 68.6384C132.135 67.8147 132.354 66.936 133.178 66.4417C134.222 65.3983 134.441 63.2565 136.693 63.8606C137.627 64.0802 138.45 64.4097 138.231 65.6179C137.846 67.4852 138.121 69.5721 136.748 71.1647C135.21 70.945 133.727 71.3844 132.3 70.8901Z" fill="#751119"/>
<path d="M133.947 67.5947C133.233 67.9792 132.465 68.3087 131.751 68.6931C130.213 66.6062 128.071 67.1005 126.204 67.7046C124.227 68.3087 124.062 70.121 124.227 71.9333C121.097 69.6816 121.646 72.9767 120.822 74.1849C119.01 71.9333 119.284 70.6152 121.865 69.7365C123.458 69.1874 124.117 68.1439 124.117 66.4964C124.282 66.2767 124.447 66.0021 124.721 66.0021C127.302 66.0021 129.883 65.7275 132.465 65.5078C133.069 65.4529 133.508 65.8373 133.947 66.1669C134.277 66.5513 134.332 67.0455 133.947 67.5947Z" fill="#751119"/>
<path d="M133.947 66.4416C130.652 66.4416 127.357 66.4416 124.062 66.4416C123.678 66.4416 123.348 66.4416 122.964 66.4416C122.964 65.7277 121.646 65.4531 122.25 64.6293C122.689 64.0252 123.787 63.8604 124.282 64.19C127.796 66.4965 130.487 64.3547 133.343 62.7621C133.563 62.8719 133.728 62.9268 133.947 63.0367C134.716 64.2449 134.771 65.3432 133.947 66.4416Z" fill="#751119"/>
<path d="M110.882 29.1521C110.497 29.1521 110.113 29.1521 109.783 29.1521C108.905 28.1636 109.619 26.9554 109.399 25.857C110.058 23.825 110.717 21.7931 111.596 18.9373C112.364 21.4086 112.914 23.1111 113.408 24.7587C114.012 27.0652 113.518 28.7128 110.882 29.1521Z" fill="#751119"/>
<path d="M139.659 45.1884C141.416 44.3646 143.064 43.6507 143.174 41.1245C143.229 39.5867 144.931 40.1908 146.029 40.4654C141.636 42.6072 144.656 45.7376 145.206 49.1974C143.009 47.6597 141.306 46.3966 139.659 45.1884Z" fill="#751119"/>
<path d="M110.882 29.1521C110.937 27.7243 110.991 27.8341 112.474 27.3948C113.573 27.0103 112.859 25.5825 113.463 24.8136C115.11 29.5366 115.11 29.5366 120.053 29.5366C121.755 29.5366 123.403 29.5366 125.38 29.5366C124.776 30.6349 124.117 31.0194 123.403 31.294C122.854 30.9644 122.305 30.3603 121.81 30.3603C118.131 30.5251 114.506 29.7562 110.882 29.1521Z" fill="#751119"/>
<path d="M109.783 62.7621C107.971 63.476 106.104 63.0367 104.291 63.2015C97.4266 63.2015 90.5618 63.2564 83.697 63.2564C83.7519 62.6523 84.2462 62.5974 84.6856 62.5974C93.0331 62.6523 101.381 62.7072 109.783 62.7621Z" fill="#751119"/>
<path d="M87.9261 40.3554C87.5416 39.3669 86.7728 38.9276 85.8392 39.0374C82.5441 39.4218 82.0498 37.6095 82.4342 34.9734C83.0933 39.9161 87.2121 37.8841 90.0679 38.5431C89.5187 39.5866 88.6949 39.971 87.9261 40.3554Z" fill="#751119"/>
<path d="M141.636 143.272C141.636 144.041 142.899 144.81 141.91 145.469C140.702 146.183 139.384 147.116 137.846 146.183C138.89 145.03 140.153 144.041 141.636 143.272Z" fill="#751119"/>
<path d="M124.611 95.3836C125.765 94.8344 127.412 95.1639 127.906 93.4615C128.016 93.0221 128.346 92.8574 128.73 93.077C129.774 93.6262 129.444 94.6147 129.554 95.4934C127.906 95.6582 126.259 95.7131 124.611 95.3836Z" fill="#751119"/>
<path d="M107.532 29.6464C105.774 30.6898 103.852 29.9759 102.04 30.2505C101.106 30.3603 100.118 30.6349 99.184 30.7996C98.7447 30.5251 98.3053 30.2505 97.3717 29.6464C101.161 29.6464 104.346 29.6464 107.532 29.6464Z" fill="#751119"/>
<path d="M133.947 66.4417C133.947 65.3433 133.947 64.1901 133.947 63.0917C134.936 63.0368 135.814 63.4761 136.638 63.9155C134.606 64.2999 135.54 66.8811 133.947 67.595C133.947 67.2106 133.947 66.8261 133.947 66.4417Z" fill="#751119"/>
<path d="M86.0586 149.478C86.3332 148.874 86.5529 148.215 86.8275 147.611C87.9258 148.489 88.9693 149.368 89.6832 151.345C88.1455 150.576 87.102 150.027 86.0586 149.478Z" fill="#751119"/>
<path d="M147.128 39.5866C145.535 38.4333 143.393 39.6965 141.801 38.3784C143.558 38.3784 145.37 38.3784 147.128 38.3784C147.512 38.3784 148.171 38.2137 148.116 38.8178C148.116 39.0924 147.457 39.312 147.128 39.5866Z" fill="#751119"/>
<path d="M109.399 25.8569C109.838 26.9004 110.113 27.9987 109.784 29.152C109.399 28.9324 109.015 28.7676 108.63 28.5479C108.905 27.6143 109.179 26.7356 109.399 25.8569Z" fill="#751119"/>
<path d="M80.1271 120.316C80.1271 121.579 80.1271 122.843 80.1271 124.106C77.1066 122.788 79.9624 121.524 80.1271 120.316Z" fill="#751119"/>
<path d="M82.324 34.5891C81.7749 34.5891 81.1708 34.5342 80.6216 34.5342C80.6216 33.6006 80.8962 32.8317 81.5552 32.1178C81.9396 32.9416 82.379 33.7104 82.324 34.5891Z" fill="#751119"/>
<path d="M132.3 70.89C133.782 70.89 135.265 70.3957 136.693 71.2195C135.21 71.3842 133.673 71.9334 132.3 70.89Z" fill="#751119"/>
<path d="M135.045 148.819C135.21 149.368 135.595 149.753 136.144 149.972C135.43 150.467 134.716 151.071 133.288 150.961C134.002 150.082 134.496 149.478 135.045 148.819Z" fill="#751119"/>
<path d="M105.39 34.644C105.39 34.8637 105.335 35.0833 105.335 35.303C104.456 34.9186 103.687 34.4243 103.083 33.6555C104.017 33.5456 104.95 33.6006 105.39 34.644Z" fill="#751119"/>
<path d="M101.435 32.4472C102.149 32.557 103.357 32.0628 103.028 33.6005C102.369 33.4357 101.82 33.0513 101.435 32.4472Z" fill="#751119"/>
<path d="M81.2259 118.01C81.2259 118.943 81.171 119.822 80.1825 120.316C80.2923 119.438 80.6218 118.669 81.2259 118.01Z" fill="#751119"/>
<path d="M124.941 77.3153C127.138 77.9743 129.719 76.4366 131.037 79.3473C129.389 77.6448 126.094 81.7088 124.941 77.3153Z" fill="#751119"/>
<path d="M125.16 77.4802C123.183 77.0408 120.987 76.9859 120.767 74.1851C122.414 75.0088 124.282 75.6129 125.16 77.4802Z" fill="#751119"/>
</svg>
