<svg width="476" height="446" viewBox="0 0 476 446" fill="none" xmlns="http://www.w3.org/2000/svg">
<g filter="url(#filter0_d_9_249)">
<path d="M416.311 355.453H386.768V355.676H416.311V355.453Z" fill="#EBEBEB"/>
<path d="M310.448 357.879H302.697V358.102H310.448V357.879Z" fill="#EBEBEB"/>
<path d="M385.876 347.175H368.758V347.398H385.876V347.175Z" fill="#EBEBEB"/>
<path d="M100.32 348.674H61.7944V348.897H100.32V348.674Z" fill="#EBEBEB"/>
<path d="M113.914 348.674H108.268V348.897H113.914V348.674Z" fill="#EBEBEB"/>
<path d="M215.834 352.438H132.271V352.661H215.834V352.438Z" fill="#EBEBEB"/>
<path d="M226.404 301.318H54.1768C52.826 301.318 51.5305 300.781 50.5753 299.826C49.6201 298.871 49.0835 297.575 49.0835 296.224V54.1088C49.0953 52.7657 49.6371 51.4816 50.591 50.5361C51.5449 49.5905 52.8337 49.06 54.1768 49.0601H226.404C227.755 49.0601 229.051 49.5967 230.006 50.5519C230.961 51.507 231.497 52.8025 231.497 54.1534V296.224C231.497 297.575 230.961 298.871 230.006 299.826C229.051 300.781 227.755 301.318 226.404 301.318ZM54.1768 49.2385C52.8859 49.2408 51.6484 49.7547 50.7356 50.6675C49.8227 51.5804 49.3089 52.8178 49.3065 54.1088V296.224C49.3089 297.515 49.8227 298.753 50.7356 299.666C51.6484 300.578 52.8859 301.092 54.1768 301.095H226.404C227.695 301.092 228.933 300.578 229.845 299.666C230.758 298.753 231.272 297.515 231.275 296.224V54.1088C231.272 52.8178 230.758 51.5804 229.845 50.6675C228.933 49.7547 227.695 49.2408 226.404 49.2385H54.1768Z" fill="#EBEBEB"/>
<path d="M419.353 301.318H247.107C245.757 301.315 244.463 300.778 243.509 299.823C242.554 298.869 242.017 297.574 242.014 296.224V54.1088C242.028 52.7664 242.571 51.4837 243.524 50.5386C244.478 49.5936 245.765 49.0623 247.107 49.0601H419.353C420.693 49.0647 421.977 49.5973 422.927 50.5423C423.877 51.4874 424.416 52.7688 424.428 54.1088V296.224C424.428 297.572 423.894 298.865 422.943 299.82C421.991 300.774 420.7 301.313 419.353 301.318ZM247.107 49.2385C245.817 49.2408 244.579 49.7547 243.666 50.6675C242.753 51.5804 242.24 52.8178 242.237 54.1088V296.224C242.24 297.515 242.753 298.753 243.666 299.666C244.579 300.578 245.817 301.092 247.107 301.095H419.353C420.644 301.092 421.881 300.578 422.794 299.666C423.707 298.753 424.221 297.515 424.223 296.224V54.1088C424.221 52.8178 423.707 51.5804 422.794 50.6675C421.881 49.7547 420.644 49.2408 419.353 49.2385H247.107Z" fill="#EBEBEB"/>
<path d="M461 341.101H15V341.324H461V341.101Z" fill="#EBEBEB"/>
<path d="M167.443 320.585H188.11L177.246 232.098C176.984 230.249 176.076 228.551 174.681 227.308C173.286 226.065 171.496 225.357 169.628 225.31H79.4468L92.6662 320.585H167.443Z" fill="#F5F5F5"/>
<path d="M101.89 320.585H81.2223L70.3577 232.098C70.2242 231.248 70.2792 230.378 70.5188 229.551C70.7584 228.724 71.1767 227.96 71.7443 227.312C72.3118 226.665 73.0147 226.15 73.8032 225.804C74.5917 225.458 75.4466 225.289 76.3074 225.31H83.4434C85.31 225.358 87.0993 226.066 88.4926 227.309C89.8859 228.552 90.7929 230.249 91.0521 232.098L101.89 320.585Z" fill="#F0F0F0"/>
<path d="M109.552 320.478L105.805 277.662C105.724 276.73 105.326 275.855 104.676 275.183C104.026 274.511 103.165 274.082 102.237 273.969L100.694 273.773C99.4547 273.615 98.3064 273.038 97.44 272.137C96.5735 271.237 96.0411 270.067 95.931 268.822L95.2799 261.035C95.2172 260.285 95.3101 259.53 95.5528 258.817C95.7955 258.105 96.1826 257.45 96.6901 256.894C97.1975 256.338 97.8143 255.893 98.5018 255.586C99.1893 255.279 99.9327 255.118 100.685 255.112H66.1472C65.3882 255.112 64.6375 255.269 63.9427 255.575C63.248 255.88 62.6244 256.327 62.1118 256.887C61.5991 257.446 61.2086 258.106 60.965 258.825C60.7214 259.544 60.6302 260.306 60.697 261.062L61.375 268.867C61.4818 270.113 62.0132 271.284 62.8802 272.185C63.7472 273.086 64.8974 273.662 66.1382 273.817L67.6725 274.014C68.5999 274.128 69.4599 274.557 70.1092 275.229C70.7585 275.901 71.1578 276.776 71.2405 277.706L74.9869 320.522C75.127 322.022 75.8222 323.414 76.936 324.428C78.0499 325.441 79.5021 326.001 81.0079 325.999H115.528C114.024 325.987 112.578 325.415 111.473 324.394C110.368 323.373 109.683 321.977 109.552 320.478Z" fill="#E6E6E6"/>
<path d="M204.559 266.967C204.848 263.728 206.34 260.714 208.741 258.52C211.141 256.326 214.276 255.11 217.528 255.112H187.45C184.195 255.113 181.059 256.334 178.66 258.533C176.261 260.733 174.773 263.751 174.489 266.994L171.519 300.89H201.597L204.559 266.967Z" fill="#E6E6E6"/>
<path d="M230.864 255.112H217.484C214.227 255.111 211.089 256.33 208.688 258.53C206.287 260.73 204.798 263.75 204.514 266.994L201.553 300.89H129.979L127.008 266.994C126.724 263.745 125.231 260.721 122.825 258.521C120.418 256.321 117.273 255.104 114.012 255.112H100.632C99.8836 255.125 99.1461 255.292 98.4649 255.602C97.7837 255.912 97.1734 256.358 96.6717 256.913C96.17 257.468 95.7876 258.121 95.5482 258.83C95.3087 259.539 95.2174 260.289 95.2798 261.035L95.9577 268.84C96.0677 270.085 96.6002 271.254 97.4666 272.155C98.333 273.055 99.4814 273.633 100.721 273.791L102.264 273.987C103.192 274.1 104.053 274.528 104.703 275.201C105.352 275.873 105.751 276.748 105.832 277.68L109.579 320.496C109.71 322.002 110.401 323.405 111.516 324.427C112.63 325.449 114.087 326.016 115.6 326.017H216.039C217.551 326.016 219.008 325.449 220.122 324.427C221.237 323.405 221.928 322.002 222.06 320.496L225.806 277.68C225.889 276.749 226.288 275.875 226.937 275.203C227.587 274.531 228.447 274.101 229.374 273.987L230.908 273.791C232.149 273.636 233.299 273.06 234.166 272.158C235.033 271.257 235.565 270.086 235.672 268.84L236.35 261.035C236.413 260.278 236.318 259.516 236.07 258.798C235.823 258.08 235.428 257.422 234.912 256.864C234.396 256.307 233.77 255.864 233.073 255.562C232.375 255.26 231.623 255.107 230.864 255.112Z" fill="#F0F0F0"/>
<path d="M140.71 171.915C162.578 171.915 180.306 154.188 180.306 132.319C180.306 110.451 162.578 92.7235 140.71 92.7235C118.841 92.7235 101.114 110.451 101.114 132.319C101.114 154.188 118.841 171.915 140.71 171.915Z" fill="#F5F5F5"/>
<path d="M140.71 165.894C159.253 165.894 174.285 150.862 174.285 132.319C174.285 113.776 159.253 98.7445 140.71 98.7445C122.167 98.7445 107.135 113.776 107.135 132.319C107.135 150.862 122.167 165.894 140.71 165.894Z" fill="#FAFAFA"/>
<path d="M140.71 98.7445C140.183 98.7445 139.657 98.7445 139.131 98.7445C147.758 99.1425 155.901 102.85 161.865 109.096C167.83 115.342 171.158 123.647 171.158 132.284C171.158 140.92 167.83 149.225 161.865 155.471C155.901 161.717 147.758 165.425 139.131 165.823C139.657 165.823 140.183 165.823 140.71 165.823C149.614 165.823 158.154 162.286 164.451 155.989C170.747 149.692 174.285 141.153 174.285 132.248C174.285 123.343 170.747 114.803 164.451 108.507C158.154 102.21 149.614 98.6731 140.71 98.6731V98.7445Z" fill="#E6E6E6"/>
<path d="M140.719 165.859C141.566 165.814 142.404 165.734 143.243 165.636V134.844H172.616C172.679 134.005 172.715 133.167 172.715 132.319C172.715 131.472 172.715 130.633 172.616 129.795H143.234V99.0121C142.395 98.905 141.557 98.8247 140.71 98.7891H138.185V129.804H107.17V134.853H138.185V165.867L140.719 165.859Z" fill="#F0F0F0"/>
<path d="M138.185 98.7802H135.661V129.795H138.185V98.7802Z" fill="#E6E6E6"/>
<path d="M138.185 134.844H135.661V165.859H138.185V134.844Z" fill="#E6E6E6"/>
<path d="M335.29 171.915C357.158 171.915 374.886 154.188 374.886 132.319C374.886 110.451 357.158 92.7235 335.29 92.7235C313.422 92.7235 295.694 110.451 295.694 132.319C295.694 154.188 313.422 171.915 335.29 171.915Z" fill="#F5F5F5"/>
<path d="M335.29 165.894C353.833 165.894 368.865 150.862 368.865 132.319C368.865 113.776 353.833 98.7445 335.29 98.7445C316.747 98.7445 301.715 113.776 301.715 132.319C301.715 150.862 316.747 165.894 335.29 165.894Z" fill="#FAFAFA"/>
<path d="M335.291 98.7445C334.764 98.7445 334.238 98.7445 333.721 98.7445C342.348 99.1425 350.491 102.85 356.455 109.096C362.42 115.342 365.748 123.647 365.748 132.284C365.748 140.92 362.42 149.225 356.455 155.471C350.491 161.717 342.348 165.425 333.721 165.823C334.238 165.823 334.764 165.823 335.291 165.823C344.195 165.823 352.735 162.286 359.032 155.989C365.328 149.692 368.865 141.153 368.865 132.248C368.865 123.343 365.328 114.803 359.032 108.507C352.735 102.21 344.195 98.6731 335.291 98.6731V98.7445Z" fill="#E6E6E6"/>
<path d="M335.308 165.859C336.2 165.814 337.003 165.734 337.832 165.636V134.844H367.206C367.268 134.005 367.313 133.167 367.313 132.319C367.313 131.472 367.268 130.633 367.206 129.795H337.815V99.0121C336.985 98.905 336.146 98.8247 335.29 98.7891H332.766V129.804H301.751V134.853H332.766V165.867L335.308 165.859Z" fill="#F0F0F0"/>
<path d="M332.775 98.7802H330.25V129.795H332.775V98.7802Z" fill="#E6E6E6"/>
<path d="M332.775 134.844H330.25V165.859H332.775V134.844Z" fill="#E6E6E6"/>
<path d="M267.043 316.455H335.611V292.79H267.043V316.455Z" fill="#EBEBEB"/>
<path d="M267.043 340.129H335.611V316.464H267.043V340.129Z" fill="#EBEBEB"/>
<path d="M338.002 316.455H406.57V292.79H338.002V316.455Z" fill="#EBEBEB"/>
<path d="M338.002 340.129H406.57V316.464H338.002V340.129Z" fill="#EBEBEB"/>
<path d="M380.515 316.455L371.979 292.79H385.109L393.645 316.455H380.515Z" fill="#F0F0F0"/>
<path d="M365.627 292.79H368.509L377.045 316.455H374.155L365.627 292.79Z" fill="#F0F0F0"/>
<path d="M389.042 340.129L380.515 316.455H393.645L402.173 340.129H389.042Z" fill="#F0F0F0"/>
<path d="M374.155 316.455H377.045L385.572 340.129H382.691L374.155 316.455Z" fill="#F0F0F0"/>
<path d="M282.44 316.455L273.912 292.79H287.042L295.57 316.455H282.44Z" fill="#F0F0F0"/>
<path d="M267.561 292.79H270.442L278.97 316.455H276.089L267.561 292.79Z" fill="#F0F0F0"/>
<path d="M290.976 340.129L282.439 316.455H295.57L304.106 340.129H290.976Z" fill="#F0F0F0"/>
<path d="M276.088 316.455H278.97L287.506 340.129H284.616L276.088 316.455Z" fill="#F0F0F0"/>
<path d="M406.57 296.429V294.039H338.002V296.429H406.57Z" fill="#E0E0E0"/>
<path d="M406.57 319.907V317.516H338.002V319.907H406.57Z" fill="#E0E0E0"/>
<path d="M370.533 307.651C370.261 307.651 370 307.543 369.808 307.35C369.616 307.158 369.508 306.897 369.508 306.625C369.508 306.353 369.616 306.092 369.808 305.9C370 305.707 370.261 305.599 370.533 305.599H374.039C374.311 305.599 374.572 305.707 374.764 305.9C374.957 306.092 375.065 306.353 375.065 306.625C375.065 306.897 374.957 307.158 374.764 307.35C374.572 307.543 374.311 307.651 374.039 307.651H370.533Z" fill="#E0E0E0"/>
<path d="M370.533 307.294C370.39 307.307 370.245 307.291 370.109 307.245C369.972 307.199 369.847 307.126 369.74 307.029C369.634 306.932 369.549 306.813 369.491 306.682C369.433 306.55 369.403 306.408 369.403 306.264C369.403 306.12 369.433 305.977 369.491 305.846C369.549 305.714 369.634 305.596 369.74 305.499C369.847 305.402 369.972 305.328 370.109 305.283C370.245 305.237 370.39 305.22 370.533 305.233H374.039C374.296 305.257 374.534 305.376 374.708 305.567C374.881 305.757 374.978 306.006 374.978 306.264C374.978 306.522 374.881 306.77 374.708 306.961C374.534 307.151 374.296 307.27 374.039 307.294H370.533Z" fill="#F5F5F5"/>
<path d="M370.533 329.505C370.39 329.518 370.245 329.502 370.109 329.456C369.972 329.41 369.847 329.336 369.74 329.24C369.634 329.143 369.549 329.024 369.491 328.893C369.433 328.761 369.403 328.619 369.403 328.475C369.403 328.331 369.433 328.188 369.491 328.057C369.549 327.925 369.634 327.807 369.74 327.71C369.847 327.613 369.972 327.539 370.109 327.493C370.245 327.448 370.39 327.431 370.533 327.444H374.039C374.296 327.468 374.534 327.587 374.708 327.778C374.881 327.968 374.978 328.217 374.978 328.475C374.978 328.732 374.881 328.981 374.708 329.172C374.534 329.362 374.296 329.481 374.039 329.505H370.533Z" fill="#E0E0E0"/>
<path d="M370.533 329.148C370.39 329.161 370.245 329.145 370.109 329.099C369.972 329.053 369.847 328.98 369.74 328.883C369.634 328.786 369.549 328.667 369.491 328.536C369.433 328.404 369.403 328.262 369.403 328.118C369.403 327.974 369.433 327.831 369.491 327.7C369.549 327.568 369.634 327.45 369.74 327.353C369.847 327.256 369.972 327.182 370.109 327.137C370.245 327.091 370.39 327.074 370.533 327.087H374.039C374.296 327.111 374.534 327.23 374.708 327.421C374.881 327.611 374.978 327.86 374.978 328.118C374.978 328.376 374.881 328.624 374.708 328.815C374.534 329.005 374.296 329.124 374.039 329.148H370.533Z" fill="#F5F5F5"/>
<path d="M336.807 291.729V341.163H407.765V291.729H336.807ZM339.197 317.713H405.375V338.764H339.197V317.713ZM339.197 294.262H405.375V315.313H339.197V294.262Z" fill="#F5F5F5"/>
<path d="M335.611 296.429V294.039H267.043V296.429H335.611Z" fill="#E0E0E0"/>
<path d="M335.603 319.916V317.525H267.035V319.916H335.603Z" fill="#E0E0E0"/>
<path d="M299.548 307.651C299.276 307.651 299.015 307.543 298.822 307.35C298.63 307.158 298.522 306.897 298.522 306.625C298.522 306.353 298.63 306.092 298.822 305.9C299.015 305.707 299.276 305.599 299.548 305.599H303.116C303.388 305.599 303.649 305.707 303.841 305.9C304.033 306.092 304.142 306.353 304.142 306.625C304.142 306.897 304.033 307.158 303.841 307.35C303.649 307.543 303.388 307.651 303.116 307.651H299.548Z" fill="#E0E0E0"/>
<path d="M299.548 307.294C299.291 307.27 299.053 307.151 298.879 306.961C298.706 306.77 298.609 306.522 298.609 306.264C298.609 306.006 298.706 305.757 298.879 305.567C299.053 305.376 299.291 305.257 299.548 305.234H303.116C303.373 305.257 303.611 305.376 303.785 305.567C303.959 305.757 304.055 306.006 304.055 306.264C304.055 306.522 303.959 306.77 303.785 306.961C303.611 307.151 303.373 307.27 303.116 307.294H299.548Z" fill="#F5F5F5"/>
<path d="M299.548 329.505C299.291 329.481 299.053 329.362 298.879 329.171C298.706 328.981 298.609 328.732 298.609 328.475C298.609 328.217 298.706 327.968 298.879 327.778C299.053 327.587 299.291 327.468 299.548 327.444H303.116C303.373 327.468 303.611 327.587 303.785 327.778C303.959 327.968 304.055 328.217 304.055 328.475C304.055 328.732 303.959 328.981 303.785 329.171C303.611 329.362 303.373 329.481 303.116 329.505H299.548Z" fill="#E0E0E0"/>
<path d="M299.548 329.148C299.291 329.124 299.053 329.005 298.879 328.815C298.706 328.624 298.609 328.376 298.609 328.118C298.609 327.86 298.706 327.611 298.879 327.421C299.053 327.23 299.291 327.111 299.548 327.088H303.116C303.373 327.111 303.611 327.23 303.785 327.421C303.959 327.611 304.055 327.86 304.055 328.118C304.055 328.376 303.959 328.624 303.785 328.815C303.611 329.005 303.373 329.124 303.116 329.148H299.548Z" fill="#F5F5F5"/>
<path d="M265.839 291.729V341.163H336.807V291.729H265.839ZM268.239 317.713H334.407V338.764H268.239V317.713ZM268.239 294.262H334.407V315.313H268.239V294.262Z" fill="#F5F5F5"/>
<path d="M367.34 287.822H356.761L354.308 277.412H350.071L347.627 287.822H337.012C336.581 287.821 336.155 287.904 335.757 288.068C335.358 288.232 334.996 288.473 334.691 288.777C334.387 289.082 334.145 289.443 333.98 289.841C333.814 290.238 333.729 290.665 333.729 291.095V291.729H370.605V291.095C370.605 290.229 370.261 289.397 369.649 288.784C369.037 288.17 368.207 287.824 367.34 287.822Z" fill="#E0E0E0"/>
<path d="M399.095 222.055H305.301V282.764H399.095V222.055Z" fill="#E0E0E0"/>
<path d="M397.311 223.839H307.085V278.304H397.311V223.839Z" fill="#F5F5F5"/>
<path d="M356.815 278.304H390.006L370.373 223.839H337.182L356.815 278.304Z" fill="#FAFAFA"/>
<path d="M340.75 278.304H348.046L328.413 223.839H321.117L340.75 278.304Z" fill="#FAFAFA"/>
<path d="M212.016 341.208H118.151V325.107H214.692L212.016 341.208Z" fill="#F5F5F5"/>
<path d="M125.777 341.324H84.1209L82.3369 325.107H123.993L125.777 341.324Z" fill="#E0E0E0"/>
<path d="M233.7 377.949C329.218 377.949 406.65 373.429 406.65 367.852C406.65 362.275 329.218 357.754 233.7 357.754C138.183 357.754 60.7505 362.275 60.7505 367.852C60.7505 373.429 138.183 377.949 233.7 377.949Z" fill="#F5F5F5"/>
<path d="M349.661 366.585H345.388L344.452 301.398H350.598L349.661 366.585Z" fill="#263238"/>
<path opacity="0.5" d="M349.661 366.585H345.388L344.452 301.398H350.598L349.661 366.585Z" fill="white"/>
<path d="M311.929 366.585H307.647L306.72 301.398H312.866L311.929 366.585Z" fill="#263238"/>
<path opacity="0.5" d="M311.929 366.585H307.647L306.72 301.398H312.866L311.929 366.585Z" fill="white"/>
<path d="M303.17 366.585H298.897L297.96 301.398H304.106L303.17 366.585Z" fill="#263238"/>
<path opacity="0.5" d="M303.17 366.585H298.897L297.96 301.398H304.106L303.17 366.585Z" fill="white"/>
<path d="M265.438 366.585H261.157L260.229 301.398H266.375L265.438 366.585Z" fill="#263238"/>
<path opacity="0.5" d="M265.438 366.585H261.157L260.229 301.398H266.375L265.438 366.585Z" fill="white"/>
<path d="M329.163 302.896H259.81C259.059 302.896 258.315 302.748 257.621 302.461C256.928 302.174 256.297 301.753 255.766 301.222C255.236 300.691 254.814 300.06 254.527 299.367C254.24 298.673 254.092 297.93 254.092 297.179V289.561C254.094 288.046 254.698 286.594 255.77 285.524C256.842 284.453 258.295 283.852 259.81 283.852H321.215L326.504 233.526C326.864 230.578 328.274 227.859 330.476 225.867C332.678 223.875 335.524 222.743 338.493 222.679H364.263L358.108 241.464L352.488 283.54L348.537 295.297L329.163 302.896Z" fill="#FFA800"/>
<path opacity="0.2" d="M329.163 302.896H259.81C259.059 302.896 258.315 302.748 257.621 302.461C256.928 302.174 256.297 301.753 255.766 301.222C255.236 300.691 254.814 300.06 254.527 299.367C254.24 298.673 254.092 297.93 254.092 297.179V289.561C254.094 288.046 254.698 286.594 255.77 285.524C256.842 284.453 258.295 283.852 259.81 283.852H321.215L326.504 233.526C326.864 230.578 328.274 227.859 330.476 225.867C332.678 223.875 335.524 222.743 338.493 222.679H364.263L358.108 241.464L352.488 283.54L348.537 295.297L329.163 302.896Z" fill="black"/>
<path d="M366.395 222.679H361.248C358.28 222.743 355.435 223.875 353.235 225.868C351.034 227.86 349.626 230.579 349.268 233.526L343.979 283.852H306.14C304.627 283.855 303.176 284.457 302.106 285.527C301.036 286.597 300.434 288.048 300.431 289.561V297.179C300.431 298.694 301.032 300.147 302.103 301.219C303.173 302.291 304.625 302.894 306.14 302.896H351.917C353.655 302.897 355.332 302.254 356.623 301.091C357.915 299.928 358.73 298.327 358.911 296.599L364.905 239.564C367.305 239.516 369.6 238.567 371.335 236.907C373.069 235.247 374.117 232.996 374.271 230.6C374.29 229.558 374.1 228.523 373.711 227.556C373.323 226.59 372.744 225.711 372.01 224.972C371.275 224.233 370.399 223.649 369.435 223.256C368.47 222.862 367.436 222.666 366.395 222.679Z" fill="#FFA800"/>
<path d="M266.919 339.656L269.889 359.066L276.017 358.539L275.161 338.951L266.919 339.656Z" fill="#EBB376"/>
<path d="M276.231 350.948C276.231 350.948 276.526 355.962 277.73 358.459C278.934 360.957 280.602 364.275 276.526 364.641C274.117 364.855 269.907 365.854 265.295 366.3C262.111 366.603 257.749 366.3 257.597 364.614C257.419 362.66 268.712 358.566 268.667 356.684C268.622 354.802 268.114 351.555 268.114 351.555L276.231 350.948Z" fill="#263238"/>
<path opacity="0.1" d="M276.231 350.948C276.231 350.948 276.526 355.962 277.73 358.459C278.934 360.957 280.602 364.275 276.526 364.641C274.117 364.855 269.907 365.854 265.295 366.3C262.111 366.603 257.749 366.3 257.597 364.614C257.419 362.66 268.712 358.566 268.667 356.684C268.622 354.802 268.114 351.555 268.114 351.555L276.231 350.948Z" fill="white"/>
<path d="M306.854 247.325L305.194 261.133C305.194 261.133 258.07 265.272 255.385 277.055C252.843 288.259 266.749 345.141 266.749 345.141L276.16 344.205C276.16 344.205 277.471 300.22 273.35 284.53C273.35 284.53 309.173 284.263 321.117 284.53C326.469 284.655 340.197 284.477 336.798 268.867C332.927 251.027 328.832 247.325 328.832 247.325L328.69 239.511H307.282L306.854 247.325Z" fill="#FFA800"/>
<path opacity="0.2" d="M306.854 247.325L305.194 261.133C305.194 261.133 258.07 265.272 255.385 277.055C252.843 288.259 266.749 345.141 266.749 345.141L276.16 344.205C276.16 344.205 277.471 300.22 273.35 284.53C273.35 284.53 309.173 284.263 321.117 284.53C326.469 284.655 340.197 284.477 336.798 268.867C332.927 251.027 328.832 247.325 328.832 247.325L328.69 239.511H307.282L306.854 247.325Z" fill="white"/>
<path d="M265.839 345.382L266.624 347.693C266.698 347.9 266.839 348.078 267.025 348.197C267.21 348.317 267.43 348.371 267.65 348.353L275.865 347.594C276.095 347.574 276.311 347.474 276.474 347.311C276.637 347.148 276.737 346.932 276.757 346.702L276.909 344.312C276.916 344.17 276.893 344.029 276.84 343.897C276.788 343.765 276.708 343.647 276.605 343.548C276.503 343.45 276.381 343.375 276.247 343.329C276.113 343.282 275.971 343.264 275.83 343.277L266.678 344.116C266.533 344.13 266.394 344.177 266.269 344.252C266.145 344.327 266.039 344.429 265.958 344.55C265.878 344.672 265.826 344.809 265.805 344.953C265.785 345.097 265.796 345.243 265.839 345.382Z" fill="#FFA800"/>
<path opacity="0.6" d="M265.839 345.382L266.624 347.693C266.698 347.9 266.839 348.078 267.025 348.197C267.21 348.317 267.43 348.371 267.65 348.353L275.865 347.594C276.095 347.574 276.311 347.474 276.474 347.311C276.637 347.148 276.737 346.932 276.757 346.702L276.909 344.312C276.916 344.17 276.893 344.029 276.84 343.897C276.788 343.765 276.708 343.647 276.605 343.548C276.503 343.45 276.381 343.375 276.247 343.329C276.113 343.282 275.971 343.264 275.83 343.277L266.678 344.116C266.533 344.13 266.394 344.177 266.269 344.252C266.145 344.327 266.039 344.429 265.958 344.55C265.878 344.672 265.826 344.809 265.805 344.953C265.785 345.097 265.796 345.243 265.839 345.382Z" fill="white"/>
<path d="M284.973 339.263L286.284 358.86H292.43L293.25 339.263H284.973Z" fill="#EBB376"/>
<path d="M293.135 352.92C293.135 352.92 292.974 357.942 293.955 360.537C294.936 363.133 296.301 366.585 292.171 366.585C289.763 366.585 285.49 366.639 280.932 366.3C277.739 366.068 273.323 366.585 273.323 364.864C273.323 362.901 285.267 359.717 285.383 357.844C285.499 355.97 285.383 352.813 285.383 352.813L293.135 352.92Z" fill="#263238"/>
<path d="M314.23 247.325L312.723 261.133C312.723 261.133 283.412 265.12 278.711 272.14C274.01 279.16 285.053 348.237 285.053 348.237H293.251C299.102 309.881 296.06 284.477 296.06 284.477H332.82C356.235 284.477 335.398 247.325 335.398 247.325L335.487 239.118L313.82 240.367L314.23 247.325Z" fill="#FFA800"/>
<path opacity="0.3" d="M314.23 247.325L312.723 261.133C312.723 261.133 283.412 265.12 278.711 272.14C274.01 279.16 285.053 348.237 285.053 348.237H293.251C299.102 309.881 296.06 284.477 296.06 284.477H332.82C356.235 284.477 335.398 247.325 335.398 247.325L335.487 239.118L313.82 240.367L314.23 247.325Z" fill="white"/>
<path d="M283.555 346.899L284.17 349.423C284.217 349.623 284.332 349.8 284.494 349.925C284.657 350.05 284.857 350.115 285.062 350.11H293.224C293.431 350.115 293.634 350.047 293.797 349.918C293.96 349.789 294.073 349.608 294.116 349.405L294.66 346.872C294.69 346.74 294.689 346.602 294.658 346.47C294.627 346.338 294.566 346.215 294.48 346.11C294.394 346.005 294.285 345.921 294.162 345.865C294.038 345.808 293.904 345.78 293.768 345.784H284.438C284.3 345.781 284.163 345.81 284.039 345.868C283.914 345.927 283.805 346.014 283.719 346.122C283.634 346.23 283.574 346.356 283.546 346.491C283.517 346.626 283.52 346.765 283.555 346.899Z" fill="#FFA800"/>
<path opacity="0.6" d="M283.555 346.899L284.17 349.423C284.217 349.623 284.332 349.8 284.494 349.925C284.657 350.05 284.857 350.115 285.062 350.11H293.224C293.431 350.115 293.634 350.047 293.797 349.918C293.96 349.789 294.073 349.608 294.116 349.405L294.66 346.872C294.69 346.74 294.689 346.602 294.658 346.47C294.627 346.338 294.566 346.215 294.48 346.11C294.394 346.005 294.285 345.921 294.162 345.865C294.038 345.808 293.904 345.78 293.768 345.784H284.438C284.3 345.781 284.163 345.81 284.039 345.868C283.914 345.927 283.805 346.014 283.719 346.122C283.634 346.23 283.574 346.356 283.546 346.491C283.517 346.626 283.52 346.765 283.555 346.899Z" fill="white"/>
<path d="M272.137 239.448L265.501 240.742L259.257 238.913C258.392 238.796 257.511 238.902 256.699 239.222C255.887 239.543 255.17 240.066 254.618 240.742C253.714 241.822 253.221 243.187 253.227 244.595V244.836H266.062L273.029 243.899L272.137 239.448Z" fill="#EBB376"/>
<path d="M307.995 201.066C307.985 200.76 307.884 200.464 307.707 200.215C307.529 199.967 307.281 199.776 306.995 199.667C306.709 199.559 306.398 199.537 306.1 199.605C305.801 199.673 305.53 199.827 305.319 200.049C303.178 202.154 300.101 204.625 298.665 217.889C296.818 234.971 268.337 239.208 268.337 239.208L269.693 245.452C269.693 245.452 290.673 246.165 299.361 237.102C310.6 225.462 308.959 207.988 307.995 201.066Z" fill="#FFA800"/>
<path opacity="0.2" d="M307.995 201.066C307.985 200.76 307.884 200.464 307.707 200.215C307.529 199.967 307.281 199.776 306.995 199.667C306.709 199.559 306.398 199.537 306.1 199.605C305.801 199.673 305.53 199.827 305.319 200.049C303.178 202.154 300.101 204.625 298.665 217.889C296.818 234.971 268.337 239.208 268.337 239.208L269.693 245.452C269.693 245.452 290.673 246.165 299.361 237.102C310.6 225.462 308.959 207.988 307.995 201.066Z" fill="white"/>
<path d="M333.524 173.494C330.946 156.216 316.398 162.442 316.398 162.442C306.996 165.832 310.154 177.508 310.154 183.85C310.154 190.192 309.351 192.387 309.351 192.387C310.439 192.146 311.447 191.941 312.42 191.744L312.759 189.755L313.347 191.539C321.25 190.032 325.514 190.05 327.815 190.531C328.463 189.353 328.929 188.084 329.198 186.767C329.198 186.767 330.322 187.498 329.198 190.959C330.563 191.575 330.5 192.369 330.5 192.369C330.5 192.369 336.12 190.772 333.524 173.494Z" fill="#263238"/>
<path d="M342.462 199.059L308.468 198.657C307.674 198.645 306.902 198.915 306.289 199.42C305.676 199.925 305.263 200.632 305.123 201.414C301.109 223.607 303.847 222.822 303.847 222.822L305.56 249.983H309.36C310.472 249.984 311.55 249.6 312.41 248.896C313.27 248.191 313.86 247.211 314.079 246.121L314.462 244.212L315.47 246.888C315.812 247.796 316.422 248.58 317.218 249.136C318.014 249.691 318.959 249.993 319.93 250.001H337.28C335.264 229.146 341.873 209.022 344.175 201.503C344.265 201.228 344.29 200.935 344.247 200.649C344.205 200.362 344.096 200.089 343.93 199.852C343.764 199.615 343.545 199.42 343.29 199.282C343.035 199.144 342.752 199.068 342.462 199.059Z" fill="#FFA800"/>
<path opacity="0.4" d="M342.462 199.059L308.468 198.657C307.674 198.645 306.902 198.915 306.289 199.42C305.676 199.925 305.263 200.632 305.123 201.414C301.109 223.607 303.847 222.822 303.847 222.822L305.56 249.983H309.36C310.472 249.984 311.55 249.6 312.41 248.896C313.27 248.191 313.86 247.211 314.079 246.121L314.462 244.212L315.47 246.888C315.812 247.796 316.422 248.58 317.218 249.136C318.014 249.691 318.959 249.993 319.93 250.001H337.28C335.264 229.146 341.873 209.022 344.175 201.503C344.265 201.228 344.29 200.935 344.247 200.649C344.205 200.362 344.096 200.089 343.93 199.852C343.764 199.615 343.545 199.42 343.29 199.282C343.035 199.144 342.752 199.068 342.462 199.059Z" fill="white"/>
<path d="M267.436 239.109L268.694 245.692C268.738 245.917 268.861 246.119 269.041 246.261C269.221 246.404 269.446 246.477 269.675 246.468L270.942 246.415C271.074 246.409 271.204 246.375 271.323 246.316C271.441 246.256 271.546 246.172 271.63 246.07C271.714 245.967 271.776 245.848 271.811 245.72C271.846 245.592 271.854 245.458 271.834 245.327L270.79 238.316C270.771 238.177 270.721 238.045 270.646 237.928C270.57 237.811 270.469 237.712 270.351 237.638C270.233 237.564 270.1 237.517 269.961 237.5C269.823 237.483 269.683 237.496 269.55 237.54L268.06 238.021C267.843 238.098 267.661 238.25 267.547 238.45C267.432 238.649 267.393 238.883 267.436 239.109Z" fill="#FFA800"/>
<path opacity="0.6" d="M267.436 239.109L268.694 245.692C268.738 245.917 268.861 246.119 269.041 246.261C269.221 246.404 269.446 246.477 269.675 246.468L270.942 246.415C271.074 246.409 271.204 246.375 271.323 246.316C271.441 246.256 271.546 246.172 271.63 246.07C271.714 245.967 271.776 245.848 271.811 245.72C271.846 245.592 271.854 245.458 271.834 245.327L270.79 238.316C270.771 238.177 270.721 238.045 270.646 237.928C270.57 237.811 270.469 237.712 270.351 237.638C270.233 237.564 270.1 237.517 269.961 237.5C269.823 237.483 269.683 237.496 269.55 237.54L268.06 238.021C267.843 238.098 267.661 238.25 267.547 238.45C267.432 238.649 267.393 238.883 267.436 239.109Z" fill="white"/>
<path d="M326.308 182.557C325.809 187.106 325.648 195.366 329.038 198.077C329.038 198.077 327.744 202.671 319.029 203.528C312.839 200.798 315.14 199.282 315.14 199.282C320.019 197.631 320.492 193.974 319.386 190.576L326.308 182.557Z" fill="#EBB376"/>
<path opacity="0.1" d="M325.541 187.614L323.757 187.151L321.545 188.043L319.368 190.558C319.661 191.421 319.826 192.323 319.859 193.234C324.658 192.503 325.541 187.614 325.541 187.614Z" fill="black"/>
<path d="M329.502 172.504C329.716 180.006 329.974 183.208 326.558 187.347C321.411 193.591 312.152 192.253 309.69 184.965C307.478 178.409 307.487 167.25 314.516 163.611C316.066 162.803 317.796 162.405 319.543 162.454C321.289 162.503 322.995 162.998 324.496 163.892C325.998 164.786 327.246 166.049 328.122 167.56C328.998 169.072 329.473 170.783 329.502 172.531V172.504Z" fill="#EBB376"/>
<path d="M331.803 178.239C331.516 179.663 330.675 180.914 329.466 181.718C327.851 182.771 326.469 181.468 326.433 179.64C326.433 178.008 327.209 175.483 329.056 175.18C329.46 175.123 329.871 175.166 330.255 175.307C330.638 175.447 330.981 175.679 331.252 175.984C331.524 176.288 331.716 176.655 331.813 177.052C331.909 177.448 331.905 177.862 331.803 178.257V178.239Z" fill="#EBB376"/>
<path d="M313.437 177.115C313.027 178.548 312.427 179.919 311.653 181.192C311.98 181.386 312.347 181.507 312.726 181.544C313.105 181.581 313.488 181.534 313.847 181.406L313.437 177.115Z" fill="#D58745"/>
<path d="M318.477 172.825C318.529 172.809 318.576 172.778 318.61 172.736C318.664 172.679 318.694 172.604 318.694 172.526C318.694 172.448 318.664 172.373 318.61 172.317C318.209 171.932 317.72 171.649 317.186 171.494C316.651 171.339 316.087 171.315 315.542 171.425C315.466 171.446 315.4 171.496 315.36 171.564C315.32 171.632 315.309 171.713 315.328 171.79C315.347 171.866 315.395 171.931 315.462 171.971C315.529 172.011 315.609 172.023 315.685 172.004C316.138 171.925 316.604 171.953 317.044 172.088C317.485 172.223 317.887 172.46 318.218 172.78C318.255 172.806 318.298 172.824 318.342 172.831C318.387 172.839 318.433 172.837 318.477 172.825Z" fill="#2E353A"/>
<path d="M308.004 173.494C307.952 173.484 307.904 173.463 307.861 173.432C307.831 173.407 307.805 173.377 307.786 173.343C307.767 173.308 307.755 173.27 307.751 173.231C307.747 173.192 307.75 173.153 307.762 173.115C307.773 173.078 307.792 173.043 307.817 173.012C308.16 172.572 308.605 172.221 309.112 171.988C309.62 171.755 310.176 171.648 310.734 171.674C310.811 171.685 310.881 171.726 310.929 171.787C310.977 171.849 311 171.927 310.992 172.004C310.983 172.081 310.945 172.151 310.885 172.199C310.825 172.248 310.748 172.271 310.671 172.263C310.21 172.249 309.752 172.344 309.335 172.541C308.918 172.738 308.554 173.031 308.272 173.396C308.24 173.434 308.198 173.463 308.151 173.481C308.104 173.498 308.053 173.503 308.004 173.494Z" fill="#2E353A"/>
<path d="M317.629 175.724C317.691 176.331 317.406 176.848 317.004 176.892C316.603 176.937 316.246 176.473 316.193 175.858C316.139 175.242 316.416 174.734 316.808 174.689C317.201 174.645 317.575 175.108 317.629 175.724Z" fill="#2E353A"/>
<path d="M310.761 176.348C310.823 176.946 310.538 177.472 310.145 177.508C309.753 177.544 309.387 177.08 309.325 176.473C309.262 175.867 309.548 175.349 309.94 175.314C310.332 175.278 310.716 175.724 310.761 176.348Z" fill="#2E353A"/>
<path d="M310.119 175.323L308.629 175.037C308.629 175.037 309.476 176.108 310.119 175.323Z" fill="#2E353A"/>
<path d="M316.987 174.698L315.497 174.413C315.497 174.413 316.344 175.483 316.987 174.698Z" fill="#2E353A"/>
<path d="M313.472 183.814C314.386 183.928 315.315 183.833 316.186 183.534C317.058 183.236 317.85 182.743 318.503 182.093C318.503 182.093 320.733 186.151 314.721 186.812C314.625 185.707 314.189 184.66 313.472 183.814Z" fill="#263238"/>
<path d="M314.007 183.859L314.444 184.751C314.444 184.751 317.281 184.751 318.788 182.797C318.717 182.542 318.621 182.294 318.503 182.057C317.919 182.651 317.217 183.118 316.444 183.428C315.67 183.739 314.84 183.885 314.007 183.859Z" fill="white"/>
<path d="M315.131 186.749C318.075 186.321 318.842 184.965 318.905 183.877C315.997 184.644 315.292 186.098 315.131 186.749Z" fill="#DE5753"/>
<path d="M316.398 166.536C315.856 167.543 315.084 168.407 314.144 169.058C313.205 169.709 312.125 170.128 310.992 170.283C306.943 170.987 308.388 181.558 308.388 181.558C308.388 181.558 299.637 160.221 318.69 161.737L316.398 166.536Z" fill="#263238"/>
<path d="M319.172 162.148C318.855 162.075 318.527 162.07 318.208 162.132C317.889 162.194 317.586 162.322 317.319 162.507C317.052 162.693 316.827 162.932 316.657 163.209C316.488 163.487 316.379 163.797 316.336 164.119C316.113 165.903 316.487 168.133 319.369 169.061C324.462 170.693 323.989 176.081 323.989 176.081L324.881 172.085C324.881 172.085 325.167 177.793 328.039 177.116C330.911 176.438 331.197 171.05 331.197 171.05L326.451 163.789L319.172 162.148Z" fill="#263238"/>
<path d="M315.943 197.819C316.009 197.792 316.08 197.784 316.15 197.795C316.219 197.807 316.285 197.837 316.338 197.883C316.392 197.93 316.431 197.99 316.453 198.057C316.475 198.124 316.477 198.196 316.46 198.265C316.121 199.737 315.827 202.93 319.707 202.93C323.588 202.93 327.075 199.763 328.565 198.238C328.792 198.006 329.082 197.845 329.399 197.777C329.716 197.709 330.047 197.736 330.349 197.854L331.366 198.256C331.473 198.299 331.57 198.364 331.649 198.448C331.728 198.532 331.788 198.633 331.825 198.742C331.861 198.852 331.873 198.968 331.86 199.083C331.847 199.197 331.809 199.308 331.749 199.407C330.028 202.261 323.855 211.359 318.869 203.983C318.869 203.983 315.97 208.443 314.186 204.455C313.53 202.949 313.389 201.269 313.784 199.674C313.869 199.322 314.038 198.995 314.277 198.723C314.517 198.451 314.819 198.242 315.158 198.113L315.943 197.819Z" fill="#FFA800"/>
<path opacity="0.6" d="M315.943 197.819C316.009 197.792 316.08 197.784 316.15 197.795C316.219 197.807 316.285 197.837 316.338 197.883C316.392 197.93 316.431 197.99 316.453 198.057C316.475 198.124 316.477 198.196 316.46 198.265C316.121 199.737 315.827 202.93 319.707 202.93C323.588 202.93 327.075 199.763 328.565 198.238C328.792 198.006 329.082 197.845 329.399 197.777C329.716 197.709 330.047 197.736 330.349 197.854L331.366 198.256C331.473 198.299 331.57 198.364 331.649 198.448C331.728 198.532 331.788 198.633 331.825 198.742C331.861 198.852 331.873 198.968 331.86 199.083C331.847 199.197 331.809 199.308 331.749 199.407C330.028 202.261 323.855 211.359 318.869 203.983C318.869 203.983 315.97 208.443 314.186 204.455C313.53 202.949 313.389 201.269 313.784 199.674C313.869 199.322 314.038 198.995 314.277 198.723C314.517 198.451 314.819 198.242 315.158 198.113L315.943 197.819Z" fill="white"/>
<path d="M298.486 203.215C298.607 203.123 298.745 203.056 298.892 203.019C299.039 202.982 299.192 202.975 299.342 203C299.492 203.025 299.635 203.08 299.762 203.162C299.89 203.245 299.999 203.353 300.083 203.479C300.167 203.605 300.224 203.748 300.251 203.897C300.277 204.046 300.273 204.2 300.238 204.347C300.203 204.495 300.138 204.634 300.047 204.755C299.955 204.877 299.84 204.978 299.709 205.053L283.572 215.757C283.452 215.837 283.316 215.892 283.174 215.919C283.033 215.946 282.887 215.946 282.745 215.917C282.459 215.858 282.208 215.688 282.047 215.445C281.886 215.201 281.829 214.903 281.887 214.617C281.946 214.331 282.115 214.08 282.359 213.919L298.486 203.215Z" fill="#263238"/>
<path opacity="0.6" d="M298.486 203.215C298.607 203.123 298.745 203.056 298.892 203.019C299.039 202.982 299.192 202.975 299.342 203C299.492 203.025 299.635 203.08 299.762 203.162C299.89 203.245 299.999 203.353 300.083 203.479C300.167 203.605 300.224 203.748 300.251 203.897C300.277 204.046 300.273 204.2 300.238 204.347C300.203 204.495 300.138 204.634 300.047 204.755C299.955 204.877 299.84 204.978 299.709 205.053L283.572 215.757C283.452 215.837 283.316 215.892 283.174 215.919C283.033 215.946 282.887 215.946 282.745 215.917C282.459 215.858 282.208 215.688 282.047 215.445C281.886 215.201 281.829 214.903 281.887 214.617C281.946 214.331 282.115 214.08 282.359 213.919L298.486 203.215Z" fill="white"/>
<path d="M282.359 213.893C281.848 214.423 281.415 215.024 281.075 215.677C281.042 215.733 281.027 215.797 281.029 215.862C281.031 215.927 281.052 215.989 281.088 216.043C281.124 216.097 281.175 216.14 281.234 216.166C281.293 216.193 281.358 216.203 281.422 216.194C282.158 216.139 282.882 215.98 283.572 215.721C283.693 215.642 283.797 215.539 283.878 215.419C283.959 215.299 284.015 215.165 284.044 215.023C284.073 214.882 284.074 214.736 284.047 214.594C284.019 214.452 283.964 214.317 283.884 214.196C283.805 214.075 283.702 213.971 283.582 213.89C283.463 213.809 283.328 213.753 283.186 213.724C283.045 213.695 282.899 213.694 282.757 213.722C282.615 213.749 282.48 213.804 282.359 213.884V213.893Z" fill="#263238"/>
<path opacity="0.8" d="M282.359 213.893C281.848 214.423 281.415 215.024 281.075 215.677C281.042 215.733 281.027 215.797 281.029 215.862C281.031 215.927 281.052 215.989 281.088 216.043C281.124 216.097 281.175 216.14 281.234 216.166C281.293 216.193 281.358 216.203 281.422 216.194C282.158 216.139 282.882 215.98 283.572 215.721C283.693 215.642 283.797 215.539 283.878 215.419C283.959 215.299 284.015 215.165 284.044 215.023C284.073 214.882 284.074 214.736 284.047 214.594C284.019 214.452 283.964 214.317 283.884 214.196C283.805 214.075 283.702 213.971 283.582 213.89C283.463 213.809 283.328 213.753 283.186 213.724C283.045 213.695 282.899 213.694 282.757 213.722C282.615 213.749 282.48 213.804 282.359 213.884V213.893Z" fill="white"/>
<path d="M304.641 221.02L297.603 216.087L295.98 209.335C295.83 208.682 295.499 208.086 295.026 207.613C294.553 207.139 293.956 206.809 293.304 206.659C292.459 206.467 291.573 206.589 290.811 207.003C290.049 207.416 289.464 208.093 289.165 208.906L288.621 210.369C288.475 210.766 288.399 211.186 288.398 211.609V212.849C288.398 213.741 288.732 214.6 289.335 215.257L290.298 216.31C290.556 216.59 290.857 216.828 291.19 217.015L295.364 219.343L301.956 225.926L304.641 221.02Z" fill="#EBB376"/>
<path d="M340.634 201.021C340.792 200.575 341.064 200.178 341.423 199.869C341.782 199.56 342.215 199.35 342.68 199.26C343.145 199.17 343.625 199.202 344.074 199.355C344.522 199.507 344.923 199.774 345.236 200.129C346.726 201.967 347.582 205.481 345.04 212.412C339.965 226.193 331.883 237.013 321.759 237.013C309.753 237.013 297.604 223.116 297.604 223.116L301.814 218.156C301.814 218.156 314.007 226.425 322.142 226.425C326.79 226.461 334.336 217.434 340.634 201.021Z" fill="#FFA800"/>
<path opacity="0.2" d="M340.634 201.021C340.792 200.575 341.064 200.178 341.423 199.869C341.782 199.56 342.215 199.35 342.68 199.26C343.145 199.17 343.625 199.202 344.074 199.355C344.522 199.507 344.923 199.774 345.236 200.129C346.726 201.967 347.582 205.481 345.04 212.412C339.965 226.193 331.883 237.013 321.759 237.013C309.753 237.013 297.604 223.116 297.604 223.116L301.814 218.156C301.814 218.156 314.007 226.425 322.142 226.425C326.79 226.461 334.336 217.434 340.634 201.021Z" fill="white"/>
<path d="M296.551 222.608L301.296 216.881C301.377 216.785 301.491 216.723 301.615 216.708C301.739 216.693 301.865 216.726 301.965 216.801L303.999 218.281C304.054 218.321 304.1 218.371 304.135 218.429C304.169 218.487 304.191 218.552 304.199 218.619C304.208 218.686 304.202 218.754 304.183 218.818C304.164 218.883 304.132 218.943 304.088 218.995L298.736 225.426C298.687 225.486 298.625 225.534 298.554 225.566C298.483 225.597 298.406 225.611 298.328 225.607C298.251 225.602 298.175 225.58 298.108 225.541C298.041 225.501 297.984 225.447 297.943 225.382L296.497 223.196C296.443 223.105 296.418 222.999 296.428 222.893C296.437 222.787 296.481 222.687 296.551 222.608Z" fill="#FFA800"/>
<path opacity="0.6" d="M296.551 222.608L301.296 216.881C301.377 216.785 301.491 216.723 301.615 216.708C301.739 216.693 301.865 216.726 301.965 216.801L303.999 218.281C304.054 218.321 304.1 218.371 304.135 218.429C304.169 218.487 304.191 218.552 304.199 218.619C304.208 218.686 304.202 218.754 304.183 218.818C304.164 218.883 304.132 218.943 304.088 218.995L298.736 225.426C298.687 225.486 298.625 225.534 298.554 225.566C298.483 225.597 298.406 225.611 298.328 225.607C298.251 225.602 298.175 225.58 298.108 225.541C298.041 225.501 297.984 225.447 297.943 225.382L296.497 223.196C296.443 223.105 296.418 222.999 296.428 222.893C296.437 222.787 296.481 222.687 296.551 222.608Z" fill="white"/>
<path d="M318.459 161.666H316.791V161.728C319.86 162.05 322.701 163.497 324.767 165.79C326.832 168.083 327.975 171.059 327.976 174.145H330.938C330.935 170.836 329.62 167.663 327.28 165.324C324.94 162.984 321.768 161.668 318.459 161.666Z" fill="#263238"/>
<path opacity="0.6" d="M318.459 161.666H316.791V161.728C319.86 162.05 322.701 163.497 324.767 165.79C326.832 168.083 327.975 171.059 327.976 174.145H330.938C330.935 170.836 329.62 167.663 327.28 165.324C324.94 162.984 321.768 161.668 318.459 161.666Z" fill="white"/>
<path d="M329.501 183.886C331.738 183.886 333.551 181.462 333.551 178.471C333.551 175.481 331.738 173.057 329.501 173.057C327.265 173.057 325.452 175.481 325.452 178.471C325.452 181.462 327.265 183.886 329.501 183.886Z" fill="#FFA800"/>
<path d="M334.015 178.471C334.015 180.889 333.284 182.039 331.339 182.039C329.395 182.039 328.663 180.906 328.663 178.471C328.663 176.036 329.403 174.903 331.339 174.903C333.275 174.903 334.015 176.045 334.015 178.471Z" fill="#263238"/>
<path opacity="0.5" d="M334.015 178.471C334.015 180.889 333.284 182.039 331.339 182.039C329.395 182.039 328.663 180.906 328.663 178.471C328.663 176.036 329.403 174.903 331.339 174.903C333.275 174.903 334.015 176.045 334.015 178.471Z" fill="white"/>
<path d="M331.928 181.691C333.258 181.691 334.336 180.25 334.336 178.471C334.336 176.693 333.258 175.251 331.928 175.251C330.598 175.251 329.52 176.693 329.52 178.471C329.52 180.25 330.598 181.691 331.928 181.691Z" fill="#263238"/>
<path opacity="0.7" d="M331.928 181.691C333.258 181.691 334.336 180.25 334.336 178.471C334.336 176.693 333.258 175.251 331.928 175.251C330.598 175.251 329.52 176.693 329.52 178.471C329.52 180.25 330.598 181.691 331.928 181.691Z" fill="white"/>
<path d="M166.711 366.585H162.439L160.565 254.818H168.585L166.711 366.585Z" fill="#263238"/>
<path opacity="0.7" d="M166.711 366.585H162.439L160.565 254.818H168.585L166.711 366.585Z" fill="white"/>
<path d="M213.907 366.585H209.625L207.752 254.818H215.78L213.907 366.585Z" fill="#263238"/>
<path opacity="0.7" d="M213.907 366.585H209.625L207.752 254.818H215.78L213.907 366.585Z" fill="white"/>
<path d="M245.243 252.944H164.57V261.686H245.243V252.944Z" fill="#263238"/>
<path opacity="0.5" d="M245.243 252.944H164.57V261.686H245.243V252.944Z" fill="white"/>
<path d="M292.564 252.944H245.252V261.686H292.564V252.944Z" fill="#263238"/>
<path opacity="0.5" d="M292.564 252.944H245.252V261.686H292.564V252.944Z" fill="white"/>
<path d="M294.58 366.585H290.298L288.425 254.818H296.444L294.58 366.585Z" fill="#263238"/>
<path opacity="0.7" d="M294.58 366.585H290.298L288.425 254.818H296.444L294.58 366.585Z" fill="white"/>
<path d="M298.977 247.325H235.984C234.678 247.325 233.62 248.383 233.62 249.689V252.454C233.62 253.759 234.678 254.818 235.984 254.818H298.977C300.282 254.818 301.341 253.759 301.341 252.454V249.689C301.341 248.383 300.282 247.325 298.977 247.325Z" fill="#263238"/>
<path d="M241.8 247.325H156.284C154.978 247.325 153.92 248.383 153.92 249.689V252.454C153.92 253.759 154.978 254.818 156.284 254.818H241.8C243.105 254.818 244.164 253.759 244.164 252.454V249.689C244.164 248.383 243.105 247.325 241.8 247.325Z" fill="#263238"/>
<path opacity="0.2" d="M241.8 247.325H156.284C154.978 247.325 153.92 248.383 153.92 249.689V252.454C153.92 253.759 154.978 254.818 156.284 254.818H241.8C243.105 254.818 244.164 253.759 244.164 252.454V249.689C244.164 248.383 243.105 247.325 241.8 247.325Z" fill="white"/>
<path d="M247.384 366.585H243.111L241.238 254.818H249.257L247.384 366.585Z" fill="#263238"/>
<path opacity="0.7" d="M247.384 366.585H243.111L241.238 254.818H249.257L247.384 366.585Z" fill="white"/>
<path d="M245.136 247.334C244.805 247.334 244.487 247.202 244.253 246.968C244.019 246.734 243.887 246.416 243.887 246.085C243.887 245.754 244.019 245.436 244.253 245.202C244.487 244.968 244.805 244.836 245.136 244.836H279.166C279.497 244.836 279.815 244.968 280.049 245.202C280.283 245.436 280.415 245.754 280.415 246.085C280.415 246.416 280.283 246.734 280.049 246.968C279.815 247.202 279.497 247.334 279.166 247.334H245.136Z" fill="#FFA800"/>
<path d="M248.062 245.175L243.53 212.938C243.435 212.352 243.138 211.817 242.69 211.426C242.242 211.035 241.672 210.813 241.077 210.797H236.742V247.325H246.215C246.489 247.34 246.762 247.293 247.015 247.185C247.267 247.078 247.491 246.914 247.669 246.706C247.848 246.498 247.976 246.252 248.044 245.986C248.112 245.721 248.118 245.443 248.062 245.175Z" fill="#FFA800"/>
<path d="M244.342 247.325H205.888C205.294 247.309 204.723 247.085 204.277 246.692C203.83 246.3 203.536 245.763 203.444 245.175L198.913 212.938C198.858 212.671 198.865 212.394 198.933 212.13C199.002 211.865 199.131 211.62 199.309 211.413C199.487 211.207 199.711 211.044 199.962 210.937C200.214 210.83 200.486 210.782 200.759 210.797H239.231C239.825 210.814 240.394 211.037 240.842 211.428C241.289 211.818 241.587 212.352 241.684 212.938L246.215 245.175C246.273 245.446 246.266 245.726 246.197 245.993C246.128 246.261 245.997 246.509 245.815 246.717C245.634 246.926 245.406 247.089 245.15 247.195C244.895 247.3 244.618 247.345 244.342 247.325Z" fill="#FFA800"/>
<path opacity="0.7" d="M244.342 247.325H205.888C205.294 247.309 204.723 247.085 204.277 246.692C203.83 246.3 203.536 245.763 203.444 245.175L198.913 212.938C198.858 212.671 198.865 212.394 198.933 212.13C199.002 211.865 199.131 211.62 199.309 211.413C199.487 211.207 199.711 211.044 199.962 210.937C200.214 210.83 200.486 210.782 200.759 210.797H239.231C239.825 210.814 240.394 211.037 240.842 211.428C241.289 211.818 241.587 212.352 241.684 212.938L246.215 245.175C246.273 245.446 246.266 245.726 246.197 245.993C246.128 246.261 245.997 246.509 245.815 246.717C245.634 246.926 245.406 247.089 245.15 247.195C244.895 247.3 244.618 247.345 244.342 247.325Z" fill="white"/>
<path opacity="0.7" d="M224.414 228.182C224.458 228.426 224.447 228.677 224.382 228.916C224.317 229.155 224.199 229.376 224.038 229.564C223.877 229.752 223.675 229.902 223.449 230.002C223.222 230.103 222.976 230.151 222.729 230.145C222.186 230.127 221.666 229.922 221.258 229.564C220.85 229.206 220.578 228.718 220.49 228.182C220.446 227.939 220.457 227.688 220.522 227.449C220.587 227.21 220.705 226.988 220.866 226.801C221.028 226.613 221.229 226.463 221.455 226.363C221.682 226.262 221.928 226.214 222.176 226.22C222.719 226.234 223.241 226.438 223.65 226.797C224.059 227.155 224.329 227.645 224.414 228.182Z" fill="white"/>
<path d="M191.393 228.762H176.532C176.296 228.763 176.063 228.815 175.849 228.915C175.635 229.015 175.446 229.16 175.295 229.342C175.143 229.523 175.033 229.735 174.973 229.963C174.912 230.191 174.903 230.43 174.944 230.662V230.796C174.203 230.611 173.425 230.636 172.697 230.867C170.021 231.67 169.94 234.061 170.743 236.746C171.546 239.431 172.92 241.384 175.605 240.581C176.037 240.449 176.448 240.257 176.827 240.01C177.359 241.267 178.222 242.355 179.324 243.159V245.122H188.547V243.159C190.101 242.034 191.161 240.354 191.509 238.467L192.954 230.662C192.995 230.432 192.986 230.196 192.927 229.969C192.868 229.743 192.761 229.532 192.612 229.352C192.464 229.171 192.278 229.025 192.067 228.923C191.857 228.821 191.627 228.766 191.393 228.762ZM175.257 238.878C173.473 239.404 172.581 238.119 172.063 236.353C171.546 234.587 171.591 233.026 173.348 232.5C173.995 232.286 174.701 232.337 175.31 232.643L176.354 238.28C176.036 238.557 175.662 238.761 175.257 238.878Z" fill="#FFA800"/>
<path opacity="0.5" d="M191.393 228.762H176.532C176.296 228.763 176.063 228.815 175.849 228.915C175.635 229.015 175.446 229.16 175.295 229.342C175.143 229.523 175.033 229.735 174.973 229.963C174.912 230.191 174.903 230.43 174.944 230.662V230.796C174.203 230.611 173.425 230.636 172.697 230.867C170.021 231.67 169.94 234.061 170.743 236.746C171.546 239.431 172.92 241.384 175.605 240.581C176.037 240.449 176.448 240.257 176.827 240.01C177.359 241.267 178.222 242.355 179.324 243.159V245.122H188.547V243.159C190.101 242.034 191.161 240.354 191.509 238.467L192.954 230.662C192.995 230.432 192.986 230.196 192.927 229.969C192.868 229.743 192.761 229.532 192.612 229.352C192.464 229.171 192.278 229.025 192.067 228.923C191.857 228.821 191.627 228.766 191.393 228.762ZM175.257 238.878C173.473 239.404 172.581 238.119 172.063 236.353C171.546 234.587 171.591 233.026 173.348 232.5C173.995 232.286 174.701 232.337 175.31 232.643L176.354 238.28C176.036 238.557 175.662 238.761 175.257 238.878Z" fill="white"/>
<path d="M188.94 247.432H178.959C178.336 247.434 177.723 247.28 177.175 246.986L173.785 245.131C173.654 245.056 173.55 244.941 173.491 244.802C173.432 244.663 173.421 244.508 173.458 244.362C173.496 244.216 173.58 244.086 173.699 243.993C173.818 243.899 173.964 243.848 174.115 243.846H193.739C193.89 243.848 194.036 243.899 194.155 243.993C194.274 244.086 194.358 244.216 194.396 244.362C194.433 244.508 194.422 244.663 194.363 244.802C194.304 244.941 194.2 245.056 194.069 245.131L190.679 246.986C190.144 247.273 189.547 247.426 188.94 247.432Z" fill="#FFA800"/>
<path opacity="0.4" d="M188.94 247.432H178.959C178.336 247.434 177.723 247.28 177.175 246.986L173.785 245.131C173.654 245.056 173.55 244.941 173.491 244.802C173.432 244.663 173.421 244.508 173.458 244.362C173.496 244.216 173.58 244.086 173.699 243.993C173.818 243.899 173.964 243.848 174.115 243.846H193.739C193.89 243.848 194.036 243.899 194.155 243.993C194.274 244.086 194.358 244.216 194.396 244.362C194.433 244.508 194.422 244.663 194.363 244.802C194.304 244.941 194.2 245.056 194.069 245.131L190.679 246.986C190.144 247.273 189.547 247.426 188.94 247.432Z" fill="white"/>
<path d="M255.456 122.463H196.45C193.869 122.463 191.776 124.555 191.776 127.137V174.047C191.776 176.628 193.869 178.721 196.45 178.721H255.456C258.038 178.721 260.13 176.628 260.13 174.047V127.137C260.13 124.555 258.038 122.463 255.456 122.463Z" fill="#FFA800"/>
<path opacity="0.6" d="M255.456 122.463H196.45C193.869 122.463 191.776 124.555 191.776 127.137V174.047C191.776 176.628 193.869 178.721 196.45 178.721H255.456C258.038 178.721 260.13 176.628 260.13 174.047V127.137C260.13 124.555 258.038 122.463 255.456 122.463Z" fill="white"/>
<path d="M223.576 133.024C223.576 133.024 218.492 130.419 215.905 136.146C213.318 141.873 206.78 138.429 209.527 150.034C212.274 161.639 200.536 157.697 206.182 166.171C211.828 174.645 220.454 168.847 225.182 168.998C229.909 169.15 239.043 172.12 241.238 166.84C243.432 161.559 239.677 159.784 239.596 156.921C239.516 154.057 244.271 147.198 240.417 144.094C233.37 138.385 236.144 129.822 223.576 133.024Z" fill="#2E353A"/>
<path d="M225.182 162.54C231.3 162.54 236.26 156.194 236.26 148.366C236.26 140.538 231.3 134.193 225.182 134.193C219.063 134.193 214.103 140.538 214.103 148.366C214.103 156.194 219.063 162.54 225.182 162.54Z" fill="#B97964"/>
<path d="M225.931 149.009C226.196 150.314 226.644 151.575 227.26 152.755C226.956 152.906 226.623 152.988 226.284 152.995C225.945 153.003 225.608 152.936 225.298 152.8L225.931 149.009Z" fill="#A24E3F"/>
<path d="M221.052 149.053C221.052 149.571 221.257 150.008 221.596 150.034C221.935 150.061 222.229 149.651 222.265 149.142C222.301 148.634 222.051 148.197 221.721 148.179C221.391 148.161 221.052 148.545 221.052 149.053Z" fill="#2E353A"/>
<path d="M219.205 147.243C219.158 147.251 219.11 147.251 219.063 147.243C219.01 147.184 218.981 147.107 218.981 147.028C218.981 146.949 219.01 146.873 219.063 146.814C219.373 146.445 219.765 146.155 220.208 145.966C220.652 145.776 221.133 145.694 221.614 145.726C221.694 145.739 221.765 145.783 221.813 145.848C221.862 145.913 221.883 145.994 221.873 146.074C221.868 146.114 221.856 146.152 221.836 146.187C221.817 146.221 221.79 146.252 221.758 146.276C221.727 146.3 221.691 146.318 221.652 146.327C221.613 146.337 221.573 146.339 221.534 146.333C221.152 146.312 220.771 146.381 220.422 146.537C220.074 146.692 219.766 146.928 219.527 147.225C219.48 147.257 219.425 147.275 219.368 147.278C219.312 147.281 219.256 147.269 219.205 147.243Z" fill="#2E353A"/>
<path d="M230.302 149.053C230.302 149.571 230.088 150.008 229.749 150.034C229.41 150.061 229.115 149.651 229.08 149.142C229.044 148.634 229.294 148.197 229.633 148.179C229.972 148.161 230.266 148.545 230.302 149.053Z" fill="#2E353A"/>
<path d="M232.139 147.242C232.189 147.251 232.241 147.251 232.291 147.242C232.344 147.184 232.373 147.107 232.373 147.028C232.373 146.949 232.344 146.873 232.291 146.814C231.981 146.445 231.589 146.154 231.146 145.964C230.702 145.775 230.221 145.694 229.74 145.726C229.661 145.741 229.591 145.785 229.543 145.85C229.495 145.914 229.473 145.994 229.481 146.074C229.487 146.114 229.5 146.152 229.52 146.187C229.541 146.222 229.568 146.252 229.601 146.276C229.633 146.301 229.67 146.318 229.709 146.328C229.748 146.337 229.789 146.339 229.829 146.333C230.21 146.313 230.591 146.384 230.939 146.538C231.288 146.693 231.595 146.929 231.836 147.225C231.88 147.256 231.931 147.274 231.985 147.277C232.039 147.28 232.092 147.268 232.139 147.242Z" fill="#2E353A"/>
<path d="M225.94 156.921C226.239 156.919 226.537 156.892 226.832 156.84C226.874 156.832 226.911 156.808 226.935 156.773C226.96 156.738 226.971 156.695 226.966 156.653C226.962 156.632 226.955 156.611 226.944 156.593C226.933 156.575 226.918 156.559 226.9 156.547C226.883 156.534 226.863 156.525 226.842 156.521C226.821 156.516 226.8 156.515 226.778 156.519C226.103 156.647 225.406 156.617 224.744 156.432C224.082 156.246 223.471 155.91 222.961 155.449C222.929 155.419 222.888 155.403 222.845 155.403C222.802 155.403 222.76 155.419 222.729 155.449C222.713 155.464 222.701 155.482 222.692 155.502C222.684 155.522 222.679 155.543 222.679 155.565C222.679 155.586 222.684 155.608 222.692 155.628C222.701 155.648 222.713 155.666 222.729 155.681C223.597 156.496 224.749 156.941 225.94 156.921Z" fill="#2E353A"/>
<path d="M224.147 171.808C228.615 171.748 232.999 170.586 236.911 168.427C235.491 168.161 234.049 168.024 232.603 168.017C230.271 169.3 227.637 169.935 224.976 169.855C220.177 169.855 217.591 168.017 217.591 168.017C216.526 168.016 215.463 168.079 214.406 168.204C215.807 169.587 218.866 171.808 224.147 171.808Z" fill="#577AFB"/>
<path d="M231.346 169.605L233.37 168.32C232.329 168.167 231.34 167.763 230.489 167.143C227.876 165.19 229.294 160.203 229.294 160.203H221.792C221.614 163.191 221.694 165.832 220.008 167.072C219.013 167.839 217.803 168.275 216.547 168.32L219.223 169.917C219.054 170.292 221.007 170.996 221.007 170.996L228.456 171.416L229.883 170.524C229.883 170.524 231.756 170.167 231.346 169.605Z" fill="#B97964"/>
<path d="M217.591 168.017C217.591 168.017 220.178 169.855 224.977 169.855C227.637 169.935 230.271 169.3 232.603 168.017C232.603 168.017 247.473 167.723 247.473 178.721H204.505C204.505 178.721 202.578 168.017 217.591 168.017Z" fill="#FFA800"/>
<path d="M213.497 145.682C213.497 145.682 213.987 150.445 215.548 150.284C217.109 150.124 216.012 142.774 218.956 142.256C221.899 141.739 223.576 141.088 223.692 139.241C223.808 137.395 228.375 138.688 227.76 136.342C229.329 137.033 230.583 138.287 231.274 139.857C232.55 142.586 232.906 141.195 233.843 143.095C234.78 144.995 235.627 150.596 237.126 146.502C238.624 142.408 234.78 138.965 234.78 138.965L231.381 134.951L228.206 134.228L225.485 133.666H221.837L219.393 134.228L215.905 137.966L213.764 141.641L213.497 145.682Z" fill="#2E353A"/>
<path d="M215.37 149.071C216.208 150.695 216.048 152.559 215.013 153.237C213.978 153.915 212.453 153.13 211.624 151.506C210.794 149.883 210.946 148.019 211.98 147.341C213.015 146.663 214.54 147.448 215.37 149.071Z" fill="#B97964"/>
<path d="M234.378 149.071C233.54 150.695 233.709 152.559 234.744 153.237C235.779 153.915 237.295 153.13 238.133 151.506C238.972 149.883 238.811 148.019 237.768 147.341C236.724 146.663 235.217 147.448 234.378 149.071Z" fill="#B97964"/>
<path d="M213.782 150.311C213.558 150.368 213.366 150.51 213.244 150.706C213.123 150.902 213.082 151.138 213.131 151.363L213.586 154.28C213.599 154.357 213.642 154.426 213.706 154.471C213.769 154.516 213.848 154.534 213.925 154.521C214.002 154.508 214.07 154.465 214.115 154.401C214.16 154.338 214.179 154.259 214.166 154.182L213.845 152.157H214.032C214.247 152.089 214.43 151.946 214.549 151.754C214.667 151.563 214.714 151.335 214.679 151.112C214.645 150.889 214.532 150.686 214.361 150.539C214.19 150.392 213.972 150.311 213.746 150.311H213.782Z" fill="white"/>
<path d="M236.501 150.311C236.725 150.368 236.918 150.51 237.039 150.706C237.16 150.902 237.201 151.138 237.152 151.364L236.689 154.28C236.675 154.357 236.632 154.426 236.569 154.471C236.505 154.516 236.426 154.534 236.35 154.521C236.272 154.508 236.203 154.465 236.156 154.402C236.11 154.339 236.089 154.26 236.1 154.182L236.421 152.157H236.216C236 152.089 235.816 151.945 235.698 151.752C235.579 151.56 235.533 151.331 235.569 151.108C235.605 150.884 235.719 150.681 235.892 150.535C236.064 150.389 236.284 150.309 236.51 150.311H236.501Z" fill="white"/>
<path d="M259.221 130.491C263.659 130.491 267.257 126.892 267.257 122.454C267.257 118.015 263.659 114.417 259.221 114.417C254.782 114.417 251.184 118.015 251.184 122.454C251.184 126.892 254.782 130.491 259.221 130.491Z" fill="#FFA800"/>
<path d="M254.591 127.083C254.466 126.958 254.396 126.788 254.396 126.611C254.396 126.433 254.466 126.263 254.591 126.138L262.905 117.824C263.03 117.699 263.2 117.629 263.377 117.629C263.555 117.629 263.725 117.699 263.85 117.824C263.975 117.95 264.046 118.12 264.046 118.297C264.046 118.474 263.975 118.644 263.85 118.77L255.546 127.083C255.418 127.207 255.246 127.276 255.068 127.276C254.89 127.276 254.719 127.207 254.591 127.083Z" fill="white"/>
<path d="M261.87 127.244H259.524V125.46C260.211 125.387 260.846 125.062 261.307 124.548C261.769 124.034 262.023 123.367 262.021 122.677V121.731C262.021 121.711 262.018 121.692 262.01 121.673C262.002 121.655 261.991 121.638 261.977 121.624C261.963 121.61 261.946 121.599 261.928 121.591C261.909 121.584 261.89 121.58 261.87 121.58H261.495C261.454 121.58 261.415 121.595 261.385 121.623C261.355 121.652 261.337 121.69 261.335 121.731C261.335 121.752 261.339 121.772 261.347 121.791C261.355 121.81 261.367 121.828 261.382 121.842C261.397 121.856 261.415 121.867 261.434 121.874C261.454 121.881 261.475 121.884 261.495 121.883H261.718V122.677C261.718 123.339 261.455 123.974 260.987 124.443C260.518 124.911 259.883 125.174 259.221 125.174C258.558 125.174 257.923 124.911 257.454 124.443C256.986 123.974 256.723 123.339 256.723 122.677V121.883H256.955C256.995 121.883 257.034 121.867 257.062 121.838C257.091 121.81 257.107 121.771 257.107 121.731C257.104 121.692 257.088 121.654 257.06 121.626C257.032 121.598 256.994 121.582 256.955 121.58H256.571C256.532 121.582 256.494 121.598 256.466 121.626C256.438 121.654 256.422 121.692 256.42 121.731V122.677C256.42 123.367 256.675 124.033 257.136 124.546C257.597 125.06 258.231 125.385 258.917 125.46V127.244H256.571C256.49 127.246 256.413 127.28 256.356 127.338C256.3 127.397 256.268 127.475 256.268 127.556V127.859H262.173V127.556C262.173 127.475 262.141 127.397 262.085 127.338C262.028 127.28 261.951 127.246 261.87 127.244Z" fill="white"/>
<path d="M257.338 122.712C257.371 123.19 257.584 123.638 257.935 123.965C258.285 124.292 258.746 124.474 259.225 124.474C259.704 124.474 260.165 124.292 260.515 123.965C260.866 123.638 261.079 123.19 261.112 122.712V118.939C261.129 118.681 261.094 118.421 261.007 118.177C260.92 117.932 260.784 117.709 260.607 117.519C260.43 117.33 260.216 117.178 259.979 117.075C259.741 116.972 259.484 116.918 259.225 116.918C258.966 116.918 258.709 116.972 258.471 117.075C258.234 117.178 258.02 117.33 257.843 117.519C257.666 117.709 257.53 117.932 257.443 118.177C257.356 118.421 257.321 118.681 257.338 118.939V122.712Z" fill="white"/>
<path d="M175.908 143.897H87.5642C84.9828 143.897 82.8901 145.99 82.8901 148.572V214.535C82.8901 217.116 84.9828 219.209 87.5642 219.209H175.908C178.489 219.209 180.582 217.116 180.582 214.535V148.572C180.582 145.99 178.489 143.897 175.908 143.897Z" fill="#FFA800"/>
<path d="M125.804 150.231C125.804 150.231 121.273 148.848 120.265 158.571C119.257 168.294 112.299 171.532 119.685 175.1C127.071 178.668 134.207 174.761 137.106 175.1C140.005 175.439 145.241 173.539 144.911 168.74C144.581 163.941 136.044 150.008 136.044 150.008L125.804 150.231Z" fill="#263238"/>
<path d="M162.742 193.029C161.146 198.381 156.561 212.564 153.055 212.073C148.747 211.484 145.776 196.017 145.776 196.017L146.963 177.285C146.963 177.285 151.717 177.285 153.804 201.226L158.835 190.397L162.742 193.029Z" fill="#263238"/>
<path d="M159.263 190.558L161.047 186.669L163.848 184.376L165.364 182.744C165.75 182.328 166.257 182.045 166.813 181.936C167.37 181.827 167.946 181.898 168.46 182.138L169.352 182.557C169.873 182.798 170.303 183.201 170.577 183.705C170.852 184.21 170.957 184.789 170.877 185.358L170.404 188.747L162.822 191.2C162.822 191.2 162.608 191.958 162.242 193.189L159.263 190.558Z" fill="#EEC1BB"/>
<path d="M158.549 189.193L163.866 192.833L163.455 194.849L157.577 190.674L158.549 189.193Z" fill="#263238"/>
<path opacity="0.2" d="M158.549 189.193L163.866 192.833L163.455 194.849L157.577 190.674L158.549 189.193Z" fill="white"/>
<path d="M118.044 219.209C118.044 219.209 117.232 197.953 110.836 179.069C122.672 176.299 134.911 175.695 146.962 177.285C146.962 177.285 149.933 190.817 146.365 219.209H118.044Z" fill="#263238"/>
<path opacity="0.2" d="M118.044 219.209C118.044 219.209 117.232 197.953 110.836 179.069C122.672 176.299 134.911 175.695 146.962 177.285C146.962 177.285 149.933 190.817 146.365 219.209H118.044Z" fill="white"/>
<path d="M122.557 207.328C123.637 206.917 124.27 206.659 124.27 206.659L129.069 204.429L132.637 201.039C132.858 200.826 133.031 200.568 133.141 200.281C133.252 199.995 133.298 199.687 133.277 199.381C133.255 199.075 133.167 198.777 133.018 198.509C132.869 198.24 132.663 198.008 132.414 197.828L130.157 196.24C129.928 196.076 129.669 195.96 129.394 195.898C129.12 195.837 128.836 195.83 128.559 195.88C128.282 195.93 128.018 196.035 127.782 196.189C127.547 196.343 127.344 196.542 127.187 196.775L123.155 202.778C123.155 202.778 122.263 203.037 120.818 203.394L122.557 207.328Z" fill="#EEC1BB"/>
<path d="M122.646 207.881C117.419 209.852 101.756 215.248 97.046 211.003C91.3639 205.874 110.836 179.069 110.836 179.069C116.037 184.947 114.163 191.022 114.163 191.022C114.163 191.022 104.146 201.592 105.092 204.197C105.921 206.525 116.215 204.197 120.925 203.028L122.646 207.881Z" fill="#263238"/>
<path d="M121.54 202.386L123.77 208.032L121.986 209.076L119.685 202.386H121.54Z" fill="#263238"/>
<path opacity="0.2" d="M121.54 202.386L123.77 208.032L121.986 209.076L119.685 202.386H121.54Z" fill="white"/>
<path d="M135.126 176.447H133.467C133.213 174.754 133.369 173.026 133.922 171.407L127.41 164.77C127.74 167.803 127.883 173.548 126.464 176.705C125.572 176.768 124.743 176.839 123.931 176.919C124.341 178.115 125.911 181.156 131.317 181.156C136.722 181.156 135.723 177.74 135.126 176.447Z" fill="#EEC1BB"/>
<path opacity="0.1" d="M128.632 167.205L127.883 169.212C129.054 171.494 130.994 173.289 133.36 174.279C133.438 173.303 133.626 172.34 133.922 171.407L129.604 167L128.632 167.205Z" fill="black"/>
<path d="M124.092 159.802C125.67 165.814 126.206 168.401 129.898 170.916C135.447 174.716 142.493 171.469 142.752 165.1C142.993 159.365 140.379 150.489 133.939 149.241C132.523 148.966 131.06 149.057 129.689 149.504C128.318 149.951 127.083 150.74 126.101 151.797C125.119 152.854 124.423 154.143 124.078 155.544C123.732 156.944 123.749 158.41 124.127 159.802H124.092Z" fill="#EEC1BB"/>
<path d="M123.601 164.895C123.879 165.423 124.258 165.891 124.718 166.273C125.177 166.654 125.707 166.94 126.277 167.116C127.803 167.58 128.596 166.224 128.195 164.761C127.838 163.45 126.616 161.63 125.064 161.809C124.527 161.89 124.044 162.181 123.72 162.617C123.396 163.053 123.257 163.599 123.334 164.137C123.373 164.405 123.464 164.662 123.601 164.895Z" fill="#EEC1BB"/>
<path d="M137.953 159.722C138.613 160.767 139.415 161.715 140.335 162.54C140.121 162.773 139.858 162.956 139.565 163.075C139.272 163.193 138.956 163.246 138.64 163.227L137.953 159.722Z" fill="#D58745"/>
<path d="M132.592 157.465C132.551 157.474 132.508 157.474 132.467 157.465C132.412 157.43 132.373 157.375 132.358 157.312C132.343 157.248 132.354 157.182 132.387 157.126C132.616 156.724 132.938 156.383 133.326 156.132C133.714 155.88 134.157 155.726 134.617 155.681C134.683 155.681 134.746 155.705 134.794 155.75C134.842 155.795 134.871 155.856 134.876 155.922C134.878 155.986 134.855 156.05 134.812 156.098C134.769 156.146 134.708 156.176 134.644 156.18C134.264 156.221 133.899 156.351 133.58 156.561C133.26 156.77 132.995 157.052 132.806 157.385C132.782 157.417 132.749 157.441 132.711 157.456C132.673 157.47 132.632 157.473 132.592 157.465Z" fill="#2E353A"/>
<path d="M138.497 154.896C138.468 154.866 138.447 154.829 138.435 154.789C138.425 154.758 138.422 154.725 138.426 154.693C138.429 154.661 138.439 154.629 138.455 154.601C138.471 154.573 138.492 154.548 138.518 154.528C138.543 154.508 138.573 154.494 138.604 154.485C139.047 154.348 139.516 154.319 139.972 154.4C140.428 154.48 140.858 154.669 141.227 154.949C141.257 154.968 141.284 154.994 141.304 155.024C141.324 155.054 141.337 155.088 141.342 155.123C141.348 155.159 141.346 155.196 141.336 155.23C141.326 155.265 141.309 155.297 141.285 155.324C141.262 155.352 141.233 155.374 141.2 155.389C141.167 155.404 141.131 155.412 141.095 155.412C141.059 155.412 141.024 155.404 140.991 155.389C140.958 155.374 140.929 155.351 140.906 155.324C140.599 155.096 140.242 154.944 139.865 154.882C139.488 154.82 139.102 154.849 138.738 154.967C138.695 154.977 138.651 154.975 138.608 154.963C138.566 154.95 138.528 154.927 138.497 154.896Z" fill="#2E353A"/>
<path d="M134.287 159.588C134.385 160.087 134.724 160.48 135.054 160.373C135.385 160.266 135.563 159.855 135.456 159.356C135.349 158.856 135.019 158.517 134.698 158.58C134.377 158.642 134.189 159.088 134.287 159.588Z" fill="#2E353A"/>
<path d="M139.88 158.491C139.969 158.981 140.317 159.329 140.638 159.267C140.959 159.204 141.146 158.758 141.048 158.259C140.95 157.759 140.611 157.411 140.29 157.474C139.969 157.536 139.791 157.991 139.88 158.491Z" fill="#2E353A"/>
<path d="M140.166 157.527L141.289 156.956C141.289 156.956 140.861 158 140.166 157.527Z" fill="#2E353A"/>
<path d="M134.528 158.633L135.643 158.062C135.643 158.062 135.25 159.106 134.528 158.633Z" fill="#2E353A"/>
<path d="M139.184 164.815C137.797 164.737 136.407 164.778 135.027 164.94C135.29 165.419 135.699 165.801 136.196 166.029C136.692 166.257 137.249 166.32 137.784 166.206C139.345 166.064 139.184 164.815 139.184 164.815Z" fill="#2E353A"/>
<path d="M136.99 165.618C137.597 165.529 138.217 165.619 138.774 165.876C138.497 166.074 138.169 166.189 137.828 166.206C137.221 166.295 136.601 166.205 136.044 165.948C136.322 165.75 136.65 165.635 136.99 165.618Z" fill="#DE5753"/>
<path d="M139.042 164.806C139.02 164.913 138.968 165.012 138.892 165.091C138.816 165.17 138.72 165.225 138.614 165.252C137.723 165.321 136.828 165.321 135.938 165.252C135.797 165.256 135.657 165.226 135.53 165.166C135.403 165.105 135.292 165.016 135.206 164.904C136.481 164.779 137.762 164.747 139.042 164.806Z" fill="white"/>
<path d="M125.804 164.503C125.804 164.503 128.48 162.255 127.883 157.465C127.285 152.675 133.351 157.144 134.564 153.13C135.777 149.116 141.004 157.26 143.573 152.354C146.142 147.448 134.421 146.252 133.252 147.671C132.084 149.089 116.064 146.779 125.804 164.503Z" fill="#263238"/>
<path d="M172.697 204.304H90.7665C89.594 204.304 88.6436 205.254 88.6436 206.427V210.459C88.6436 211.631 89.594 212.581 90.7665 212.581H172.697C173.869 212.581 174.82 211.631 174.82 210.459V206.427C174.82 205.254 173.869 204.304 172.697 204.304Z" fill="white"/>
<path d="M99.4365 210.512V206.382L102.023 208.452L99.4365 210.512Z" fill="#263238"/>
<path d="M106.189 209.665L107.322 208.469L106.189 207.265V209.665Z" fill="#263238"/>
<path d="M107.322 207.31V208.469V209.629H107.831V207.31H107.322Z" fill="#263238"/>
<path d="M95.2621 207.265L94.1382 208.469L95.2621 209.665V207.265Z" fill="#263238"/>
<path d="M94.1385 209.629V208.469V207.31H93.6211V209.629H94.1385Z" fill="#263238"/>
<path d="M170.823 207.863H115.725V209.076H170.823V207.863Z" fill="#263238"/>
<path d="M141.825 205.731H139.862V211.154H141.825V205.731Z" fill="#FFA800"/>
<path d="M312.749 142.287C315.398 131.063 308.446 119.816 297.222 117.167C285.998 114.518 274.751 121.469 272.102 132.693C269.453 143.918 276.404 155.164 287.628 157.813C298.853 160.463 310.099 153.511 312.749 142.287Z" fill="#FFA800"/>
<path opacity="0.7" d="M312.749 142.287C315.398 131.063 308.446 119.816 297.222 117.167C285.998 114.518 274.751 121.469 272.102 132.693C269.453 143.918 276.404 155.164 287.628 157.813C298.853 160.463 310.099 153.511 312.749 142.287Z" fill="white"/>
<g opacity="0.8">
<path d="M288.22 144.593C289.35 143.496 290.863 142.882 292.439 142.882C294.014 142.882 295.528 143.496 296.658 144.593C297.791 145.637 299.503 143.942 298.362 142.889C296.771 141.357 294.648 140.5 292.439 140.5C290.23 140.5 288.107 141.357 286.516 142.889C285.374 143.942 287.078 145.637 288.22 144.593Z" fill="#FFA800"/>
<path d="M291.618 147.992C291.836 147.777 292.129 147.656 292.435 147.656C292.74 147.656 293.034 147.777 293.251 147.992C294.393 149.044 296.096 147.341 294.955 146.288C294.278 145.636 293.375 145.271 292.435 145.271C291.495 145.271 290.591 145.636 289.915 146.288C288.773 147.341 290.486 149.044 291.618 147.992Z" fill="#FFA800"/>
<path d="M283.742 140.115C286.072 137.857 289.189 136.593 292.435 136.593C295.68 136.593 298.797 137.857 301.127 140.115C302.269 141.159 303.973 139.464 302.831 138.412C300.039 135.72 296.313 134.215 292.435 134.215C288.557 134.215 284.83 135.72 282.038 138.412C280.897 139.464 282.609 141.168 283.742 140.115Z" fill="#FFA800"/>
<path d="M279.666 136.03C283.09 132.712 287.671 130.857 292.439 130.857C297.207 130.857 301.788 132.712 305.212 136.03C306.345 137.091 308.049 135.397 306.916 134.326C303.033 130.569 297.842 128.469 292.439 128.469C287.036 128.469 281.845 130.569 277.962 134.326C276.829 135.397 278.533 137.091 279.666 136.03Z" fill="#FFA800"/>
</g>
<path d="M126.143 268.804C138.006 268.804 147.623 259.188 147.623 247.325C147.623 235.462 138.006 225.845 126.143 225.845C114.281 225.845 104.664 235.462 104.664 247.325C104.664 259.188 114.281 268.804 126.143 268.804Z" fill="#FFA800"/>
<path opacity="0.7" d="M126.143 268.804C138.006 268.804 147.623 259.188 147.623 247.325C147.623 235.462 138.006 225.845 126.143 225.845C114.281 225.845 104.664 235.462 104.664 247.325C104.664 259.188 114.281 268.804 126.143 268.804Z" fill="white"/>
<path d="M121.47 240.492V246.031L114.797 241.152V253.497L121.47 248.609V254.158H137.481V240.492H121.47Z" fill="#FFA800"/>
<path d="M380.296 167.551C382.654 157.559 376.466 147.547 366.474 145.188C356.482 142.83 346.47 149.018 344.111 159.01C341.753 169.002 347.941 179.014 357.933 181.373C367.926 183.731 377.937 177.543 380.296 167.551Z" fill="#FFA800"/>
<path opacity="0.7" d="M380.296 167.551C382.654 157.559 376.466 147.547 366.474 145.188C356.482 142.83 346.47 149.018 344.111 159.01C341.753 169.002 347.941 179.014 357.933 181.373C367.926 183.731 377.937 177.543 380.296 167.551Z" fill="white"/>
<path d="M367.625 173.048H362.88V169.48C364.28 169.322 365.572 168.655 366.512 167.606C367.451 166.556 367.971 165.198 367.973 163.789V161.862C367.971 161.781 367.937 161.704 367.879 161.647C367.82 161.591 367.742 161.559 367.661 161.559H366.885C366.84 161.551 366.794 161.554 366.75 161.566C366.707 161.578 366.666 161.599 366.631 161.628C366.596 161.658 366.568 161.694 366.549 161.735C366.53 161.777 366.52 161.821 366.52 161.867C366.52 161.912 366.53 161.957 366.549 161.998C366.568 162.04 366.596 162.076 366.631 162.106C366.666 162.135 366.707 162.156 366.75 162.168C366.794 162.18 366.84 162.182 366.885 162.175H367.34V163.789C367.34 165.14 366.803 166.435 365.848 167.391C364.893 168.346 363.597 168.882 362.247 168.882C360.896 168.882 359.6 168.346 358.645 167.391C357.69 166.435 357.153 165.14 357.153 163.789V162.175H357.617C357.662 162.182 357.708 162.18 357.752 162.168C357.796 162.156 357.836 162.135 357.871 162.106C357.906 162.076 357.934 162.04 357.953 161.998C357.972 161.957 357.982 161.912 357.982 161.867C357.982 161.821 357.972 161.777 357.953 161.735C357.934 161.694 357.906 161.658 357.871 161.628C357.836 161.599 357.796 161.578 357.752 161.566C357.708 161.554 357.662 161.551 357.617 161.559H356.841C356.801 161.558 356.76 161.565 356.722 161.58C356.684 161.594 356.65 161.616 356.621 161.645C356.592 161.673 356.569 161.707 356.553 161.744C356.537 161.782 356.529 161.822 356.529 161.862V163.789C356.529 165.198 357.049 166.558 357.988 167.608C358.928 168.658 360.222 169.324 361.622 169.48V173.048H356.814C356.649 173.048 356.49 173.114 356.373 173.231C356.256 173.348 356.19 173.507 356.19 173.673V174.297H368.232V173.673C368.232 173.51 368.169 173.354 368.055 173.237C367.942 173.121 367.788 173.053 367.625 173.048Z" fill="#FFA800"/>
<path d="M362.22 167.696C363.242 167.696 364.222 167.29 364.945 166.567C365.667 165.845 366.073 164.865 366.073 163.843H358.366C358.365 164.349 358.464 164.851 358.657 165.319C358.851 165.787 359.134 166.212 359.492 166.57C359.851 166.928 360.276 167.212 360.744 167.405C361.212 167.598 361.714 167.697 362.22 167.696Z" fill="#FFA800"/>
<path d="M366.073 156.1C366.073 155.078 365.667 154.098 364.945 153.375C364.222 152.653 363.242 152.247 362.22 152.247C361.198 152.247 360.218 152.653 359.495 153.375C358.772 154.098 358.366 155.078 358.366 156.1V163.111H366.073V156.1Z" fill="#FFA800"/>
</g>
<defs>
<filter id="filter0_d_9_249" x="0" y="-11" width="476" height="476" filterUnits="userSpaceOnUse" color-interpolation-filters="sRGB">
<feFlood flood-opacity="0" result="BackgroundImageFix"/>
<feColorMatrix in="SourceAlpha" type="matrix" values="0 0 0 0 0 0 0 0 0 0 0 0 0 0 0 0 0 0 127 0" result="hardAlpha"/>
<feOffset dy="4"/>
<feGaussianBlur stdDeviation="7.5"/>
<feComposite in2="hardAlpha" operator="out"/>
<feColorMatrix type="matrix" values="0 0 0 0 0 0 0 0 0 0 0 0 0 0 0 0 0 0 0.25 0"/>
<feBlend mode="normal" in2="BackgroundImageFix" result="effect1_dropShadow_9_249"/>
<feBlend mode="normal" in="SourceGraphic" in2="effect1_dropShadow_9_249" result="shape"/>
</filter>
</defs>
</svg>
